<?xml version="1.0" standalone="no"?>
<!DOCTYPE svg PUBLIC "-//W3C//DTD SVG 20010904//EN"
 "http://www.w3.org/TR/2001/REC-SVG-20010904/DTD/svg10.dtd">
<svg version="1.0" xmlns="http://www.w3.org/2000/svg"
 width="512.000000pt" height="325.000000pt" viewBox="0 0 512.000000 325.000000"
 preserveAspectRatio="xMidYMid meet">

<g transform="translate(0.000000,325.000000) scale(0.100000,-0.100000)"
fill="#000000" stroke="none">
<path d="M803 3079 c-75 -29 -155 -106 -195 -187 l-33 -67 -3 -188 c-2 -103
-7 -186 -10 -185 -89 48 -108 53 -207 53 -82 0 -109 -4 -147 -22 -66 -30 -143
-105 -175 -172 l-28 -56 0 -625 0 -625 26 -56 c57 -122 163 -195 297 -206 l72
-6 0 -292 c0 -270 1 -293 18 -308 16 -15 47 -17 229 -17 182 0 212 2 224 16 8
9 53 147 100 308 l85 291 1504 0 1504 0 85 -291 c47 -161 92 -299 100 -308 12
-14 42 -16 226 -16 193 0 213 2 228 18 15 16 17 53 17 309 l0 290 70 6 c133
11 235 79 292 195 l33 67 3 593 c3 643 1 666 -51 749 -33 52 -100 111 -156
137 -37 17 -65 21 -146 21 -99 0 -118 -5 -207 -53 -3 -1 -8 82 -10 185 l-3
188 -33 67 c-41 83 -120 158 -197 187 -55 21 -72 21 -795 21 -723 0 -740 0
-795 -21 -33 -12 -77 -41 -110 -71 l-55 -50 -55 50 c-33 30 -77 59 -110 71
-55 21 -71 21 -798 20 -719 0 -744 -1 -794 -20z m1521 -123 c67 -20 114 -61
142 -120 l24 -51 0 -472 0 -473 -890 0 -890 0 0 473 0 473 26 52 c30 60 74 98
136 117 65 21 1385 21 1452 1z m1920 0 c66 -20 110 -57 140 -118 l26 -52 0
-473 0 -473 -890 0 -890 0 0 473 0 472 24 51 c27 58 75 100 138 119 65 21
1385 21 1452 1z m-3763 -621 c23 -17 53 -50 66 -74 23 -44 23 -45 23 -435 0
-360 2 -394 19 -432 14 -31 30 -47 63 -63 l44 -21 1865 0 c1825 0 1865 1 1907
20 33 15 47 29 62 62 18 40 20 68 20 434 0 390 0 391 23 435 13 24 43 58 66
74 39 28 50 30 126 30 76 0 87 -2 126 -30 23 -16 53 -50 66 -74 l23 -44 0
-584 c0 -637 1 -624 -58 -687 -15 -16 -45 -37 -67 -47 -39 -18 -121 -19 -2295
-19 -2160 0 -2257 1 -2295 19 -50 22 -101 79 -115 128 -8 26 -10 220 -8 625
l3 586 30 43 c17 23 50 53 75 66 38 21 56 24 117 21 60 -3 78 -8 114 -33z
m3929 -760 l0 -125 -1850 0 -1850 0 0 125 0 125 1850 0 1850 0 0 -125z m-3500
-841 c0 -8 -105 -369 -126 -437 l-16 -48 -116 3 -117 3 -3 243 -2 242 190 0
c104 0 190 -3 190 -6z m3678 -236 l-3 -243 -117 -3 -116 -3 -16 48 c-21 67
-126 429 -126 437 0 3 86 6 190 6 l190 0 -2 -242z"/>
</g>
</svg>
