<?xml version="1.0" standalone="no"?>
<!DOCTYPE svg PUBLIC "-//W3C//DTD SVG 20010904//EN"
 "http://www.w3.org/TR/2001/REC-SVG-20010904/DTD/svg10.dtd">
<svg version="1.0" xmlns="http://www.w3.org/2000/svg"
 width="512.000000pt" height="512.000000pt" viewBox="0 0 512.000000 512.000000"
 preserveAspectRatio="xMidYMid meet">

<g transform="translate(0.000000,512.000000) scale(0.100000,-0.100000)"
fill="#000000" stroke="none">
<path d="M1424 4671 c-297 -73 -521 -322 -563 -625 -6 -43 -11 -202 -11 -355
l0 -277 -72 -17 c-115 -27 -193 -70 -279 -156 -110 -109 -165 -229 -175 -376
-11 -155 44 -315 150 -431 l55 -61 3 -539 c4 -588 3 -575 65 -699 33 -65 134
-170 200 -207 l51 -29 4 -157 c4 -174 15 -212 78 -265 49 -42 91 -49 266 -45
157 3 162 4 200 30 21 15 50 44 64 65 23 34 25 46 28 180 l3 143 1069 0 1069
0 3 -143 c3 -134 5 -146 28 -180 14 -21 43 -50 64 -65 l39 -27 183 0 182 0 44
30 c23 17 54 51 68 75 23 42 25 56 28 202 l4 157 51 29 c66 37 167 142 200
207 62 124 61 111 65 699 l3 539 55 61 c106 116 161 276 150 431 -10 147 -65
267 -175 376 -86 86 -164 129 -278 156 l-71 17 -5 325 c-4 299 -6 332 -26 401
-65 219 -198 379 -396 475 -163 79 -102 75 -1292 74 -972 0 -1064 -2 -1129
-18z m2215 -206 c172 -41 320 -172 384 -340 21 -57 22 -76 25 -398 l3 -339
-23 -6 c-40 -10 -146 -69 -192 -107 -89 -73 -170 -207 -195 -323 -7 -34 -11
-188 -11 -424 l0 -371 -57 6 c-32 4 -107 13 -168 21 -285 39 -479 50 -845 50
-378 0 -557 -11 -879 -54 -80 -11 -156 -20 -168 -20 l-22 0 -3 398 c-4 455 -4
455 -100 598 -71 106 -177 186 -301 228 -17 5 -18 26 -15 343 3 322 4 341 25
398 63 166 211 298 379 339 91 22 2070 22 2163 1z m-2576 -1302 c83 -39 141
-97 180 -181 l32 -67 5 -467 5 -468 28 -27 c35 -35 62 -35 297 0 637 96 1263
96 1900 0 235 -35 262 -35 297 0 l28 27 5 468 5 467 32 67 c40 84 97 141 181
181 60 29 77 32 157 32 82 0 97 -3 157 -33 153 -75 240 -242 207 -400 -18 -90
-54 -151 -132 -224 l-72 -68 -5 -587 -5 -588 -27 -50 c-32 -60 -87 -114 -148
-146 l-45 -24 -1585 0 -1585 0 -50 27 c-58 30 -126 100 -152 155 -16 35 -18
88 -23 626 l-5 587 -72 68 c-99 93 -137 172 -136 287 0 102 28 176 90 245 115
128 283 164 436 93z m217 -2418 l0 -105 -105 0 -105 0 0 105 0 105 105 0 105
0 0 -105z m2770 0 l0 -105 -105 0 -105 0 0 105 0 105 105 0 105 0 0 -105z"/>
</g>
</svg>
