<?xml version="1.0" standalone="no"?>
<!DOCTYPE svg PUBLIC "-//W3C//DTD SVG 20010904//EN"
 "http://www.w3.org/TR/2001/REC-SVG-20010904/DTD/svg10.dtd">
<svg version="1.0" xmlns="http://www.w3.org/2000/svg"
 width="512.000000pt" height="512.000000pt" viewBox="0 0 512.000000 512.000000"
 preserveAspectRatio="xMidYMid meet">

<g transform="translate(0.000000,512.000000) scale(0.100000,-0.100000)"
fill="#000000" stroke="none">
<path d="M992 5100 c-192 -51 -333 -183 -404 -380 -23 -65 -23 -67 -26 -636
l-3 -571 -64 -16 c-208 -51 -367 -210 -419 -418 -14 -59 -16 -192 -16 -1292
l0 -1227 34 -38 34 -37 126 -4 126 -3 0 -195 c0 -156 3 -200 16 -224 30 -58
37 -59 560 -59 529 0 527 0 558 65 13 26 16 71 16 224 l0 191 1029 0 1029 0 4
-202 c3 -223 7 -236 65 -263 28 -13 100 -15 528 -13 l497 3 29 33 29 32 0 204
0 204 123 4 c95 3 128 7 148 21 57 38 54 -33 54 1286 0 1163 -1 1219 -19 1286
-47 173 -144 294 -300 375 -40 21 -98 44 -129 50 l-56 13 -3 571 c-3 569 -3
571 -26 636 -35 98 -79 168 -147 235 -74 73 -157 119 -261 145 -75 19 -115 20
-1568 19 -1435 0 -1494 -1 -1564 -19z m3073 -220 c101 -27 188 -99 232 -194
l28 -61 3 -566 3 -566 -48 -18 c-146 -55 -267 -176 -327 -328 -35 -87 -46
-188 -46 -414 l0 -183 -1349 0 -1348 0 -6 243 c-5 248 -11 289 -55 387 -56
129 -197 258 -325 300 l-38 12 3 566 3 567 28 60 c45 96 123 165 217 191 59
16 2963 20 3025 4z m-3290 -1630 c108 -49 175 -140 195 -261 6 -40 10 -338 10
-787 0 -803 -4 -759 67 -788 48 -21 2978 -21 3026 0 71 29 67 -15 67 788 0
449 4 747 10 787 32 195 202 320 394 290 110 -18 204 -88 253 -188 l28 -56 3
-1162 2 -1163 -2270 0 -2270 0 2 1163 3 1162 28 56 c48 98 145 171 249 188 74
12 133 3 203 -29z m3135 -1275 l0 -345 -1350 0 -1350 0 0 345 0 345 1350 0
1350 0 0 -345z m-2610 -1620 l0 -125 -345 0 -345 0 0 125 0 125 345 0 345 0 0
-125z m3210 0 l0 -125 -345 0 -345 0 0 125 0 125 345 0 345 0 0 -125z"/>
</g>
</svg>
