<svg width="70" height="70" viewBox="0 0 70 70" fill="none" xmlns="http://www.w3.org/2000/svg">
<g clip-path="url(#clip0_111_256)">
<ellipse cx="34.9606" cy="35" rx="34.9606" ry="35" fill="url(#paint0_linear_111_256)"/>
<rect x="43.9506" y="35" width="5.99325" height="24" fill="white"/>
<path fill-rule="evenodd" clip-rule="evenodd" d="M22.1855 46.4211C30.0249 46.4211 36.3801 40.0588 36.3801 32.2105C36.3801 24.3623 30.0249 18 22.1855 18C14.3461 18 7.99097 24.3623 7.99097 32.2105C7.99097 40.0588 14.3461 46.4211 22.1855 46.4211ZM21.9753 40C26.3886 40 29.9663 36.4183 29.9663 32C29.9663 27.5817 26.3886 24 21.9753 24C17.5619 24 13.9843 27.5817 13.9843 32C13.9843 36.4183 17.5619 40 21.9753 40Z" fill="white"/>
<rect x="33.9618" y="32" width="5.99325" height="14" fill="white"/>
<path fill-rule="evenodd" clip-rule="evenodd" d="M61.9302 32.2105C61.9302 40.0588 55.5751 46.4211 47.7357 46.4211C46.4249 46.4211 45.1556 46.2432 43.9505 45.9102V38.9297C45.1259 39.6104 46.4905 40 47.946 40C52.3593 40 55.937 36.4183 55.937 32C55.937 27.5817 52.3593 24 47.946 24C43.5327 24 39.955 27.5817 39.955 32V44.0979C36.092 41.5586 33.5411 37.1828 33.5411 32.2105C33.5411 24.3623 39.8963 18 47.7357 18C55.5751 18 61.9302 24.3623 61.9302 32.2105Z" fill="white"/>
<path d="M41.3589 55.9712C43.091 54.779 43.091 52.221 41.3589 51.0288L36.9583 48L36.9583 59L41.3589 55.9712Z" fill="white"/>
</g>
<defs>
<linearGradient id="paint0_linear_111_256" x1="0" y1="0" x2="83.4965" y2="80.4061" gradientUnits="userSpaceOnUse">
<stop offset="0.188278" stop-color="#5156BE"/>
<stop offset="1" stop-color="#34C38F"/>
</linearGradient>
<clipPath id="clip0_111_256">
<rect width="70" height="70" fill="white"/>
</clipPath>
</defs>
</svg>
