<svg width="196" height="70" viewBox="0 0 196 70" fill="none" xmlns="http://www.w3.org/2000/svg">
<g clip-path="url(#clip0_111_36)">
<ellipse cx="34.9606" cy="35" rx="34.9606" ry="35" fill="url(#paint0_linear_111_36)"/>
<rect x="43.9506" y="35" width="5.99325" height="24" fill="white"/>
<path fill-rule="evenodd" clip-rule="evenodd" d="M22.1855 46.4211C30.0249 46.4211 36.3801 40.0588 36.3801 32.2105C36.3801 24.3623 30.0249 18 22.1855 18C14.3461 18 7.99097 24.3623 7.99097 32.2105C7.99097 40.0588 14.3461 46.4211 22.1855 46.4211ZM21.9753 40C26.3886 40 29.9663 36.4183 29.9663 32C29.9663 27.5817 26.3886 24 21.9753 24C17.5619 24 13.9843 27.5817 13.9843 32C13.9843 36.4183 17.5619 40 21.9753 40Z" fill="white"/>
<rect x="33.9618" y="32" width="5.99325" height="14" fill="white"/>
<path fill-rule="evenodd" clip-rule="evenodd" d="M61.9302 32.2105C61.9302 40.0588 55.5751 46.4211 47.7357 46.4211C46.4249 46.4211 45.1556 46.2432 43.9505 45.9102V38.9297C45.1259 39.6104 46.4905 40 47.946 40C52.3593 40 55.937 36.4183 55.937 32C55.937 27.5817 52.3593 24 47.946 24C43.5327 24 39.955 27.5817 39.955 32V44.0979C36.092 41.5586 33.5411 37.1828 33.5411 32.2105C33.5411 24.3623 39.8963 18 47.7357 18C55.5751 18 61.9302 24.3623 61.9302 32.2105Z" fill="white"/>
<path d="M41.3589 55.9712C43.091 54.779 43.091 52.221 41.3589 51.0288L36.9583 48L36.9583 59L41.3589 55.9712Z" fill="white"/>
<path d="M160.841 33.8636C159.235 33.8636 157.888 33.4977 156.801 32.766C155.714 32.0343 154.892 31.0666 154.336 29.8628C153.792 28.6472 153.52 27.3313 153.52 25.9151V25.6319C153.545 24.1449 153.866 22.7464 154.484 21.4364C155.114 20.1264 156.022 19.0701 157.209 18.2676C158.395 17.4533 159.828 17.0461 161.508 17.0461C162.546 17.0461 163.51 17.235 164.4 17.6126C165.302 17.9785 166.142 18.48 166.92 19.1173C167.007 19.2 167.081 19.2413 167.143 19.2413C167.291 19.2413 167.359 19.0937 167.347 18.7987C167.347 18.5037 167.39 18.2086 167.476 17.9136C167.575 17.6185 167.822 17.471 168.218 17.471H170.831C171.338 17.471 171.591 17.7129 171.591 18.1968C171.591 18.7043 171.585 19.2118 171.572 19.7192C171.572 20.2267 171.572 20.7342 171.572 21.2416C171.572 22.5398 171.579 23.8439 171.591 25.1539C171.616 26.4639 171.634 27.768 171.646 29.0662C171.659 29.6798 171.671 30.2994 171.684 30.9249C171.708 31.5386 171.721 32.1582 171.721 32.7837C171.721 33.2794 171.467 33.5272 170.961 33.5272H168.051C167.717 33.5272 167.501 33.4269 167.402 33.2263C167.303 33.0138 167.26 32.766 167.273 32.4828C167.285 32.1995 167.285 31.9458 167.273 31.7215C167.273 31.6861 167.266 31.6271 167.254 31.5445C167.242 31.4619 167.205 31.4206 167.143 31.4206C167.093 31.4206 167.044 31.4383 166.994 31.4737C166.957 31.5091 166.92 31.5386 166.883 31.5622C166.018 32.2585 165.086 32.8191 164.085 33.244C163.084 33.657 162.003 33.8636 160.841 33.8636ZM162.732 30.0929C163.609 30.0929 164.418 29.9218 165.16 29.5795C165.913 29.2255 166.5 28.6708 166.92 27.9155C166.945 27.8683 167.001 27.7503 167.087 27.5614C167.186 27.3608 167.235 27.2369 167.235 27.1897C167.235 26.7766 167.229 26.3636 167.217 25.9505C167.217 25.5375 167.217 25.1303 167.217 24.729C167.217 24.5402 167.223 24.3337 167.235 24.1095C167.248 23.8734 167.242 23.6669 167.217 23.4899C167.205 23.4073 167.155 23.2833 167.069 23.1181C166.994 22.9529 166.939 22.8349 166.902 22.7641C166.469 22.0206 165.858 21.4659 165.067 21.1C164.276 20.7342 163.448 20.5512 162.583 20.5512C161.669 20.5512 160.866 20.7696 160.174 21.2062C159.482 21.6429 158.938 22.2212 158.543 22.9411C158.16 23.6492 157.969 24.4281 157.969 25.2778C157.969 26.1275 158.172 26.9183 158.58 27.65C158.988 28.3817 159.55 28.9717 160.267 29.4202C160.996 29.8687 161.817 30.0929 162.732 30.0929Z" fill="url(#paint1_linear_111_36)"/>
<path fill-rule="evenodd" clip-rule="evenodd" d="M161.508 17.5461C159.911 17.5461 158.581 17.9319 157.491 18.68L157.488 18.6819C156.377 19.4338 155.527 20.4209 154.935 21.6516C154.349 22.8939 154.044 24.2203 154.02 25.6361V25.9151C154.02 27.2643 154.278 28.5091 154.79 29.6557C155.309 30.776 156.07 31.6715 157.08 32.351C158.067 33.0159 159.312 33.3636 160.841 33.3636C161.941 33.3636 162.957 33.1684 163.892 32.7826C164.849 32.3763 165.741 31.8401 166.57 31.1726L166.592 31.1552L166.615 31.1403C166.621 31.1368 166.632 31.1285 166.65 31.1119L166.675 31.0876L166.704 31.0671C166.818 30.9851 166.967 30.9206 167.143 30.9206C167.297 30.9206 167.464 30.9785 167.588 31.1174C167.698 31.239 167.734 31.3781 167.748 31.4705C167.759 31.5476 167.77 31.632 167.772 31.7047C167.785 31.9461 167.784 32.2132 167.771 32.5046C167.762 32.7142 167.793 32.8741 167.847 32.9976L167.849 32.9983C167.87 33.0083 167.93 33.0272 168.051 33.0272H170.961C171.048 33.0272 171.105 33.0163 171.138 33.0053C171.17 32.9951 171.18 32.9855 171.182 32.9837C171.183 32.9823 171.191 32.9744 171.2 32.9476C171.21 32.9182 171.221 32.8664 171.221 32.7837C171.221 32.1648 171.209 31.5519 171.185 30.9451L171.184 30.9348C171.172 30.3094 171.159 29.6899 171.147 29.0762L171.147 29.0709C171.135 27.7743 171.116 26.4718 171.092 25.1633L171.091 25.1586C171.079 23.8471 171.073 22.5414 171.073 21.2416V19.707C171.085 19.2036 171.091 18.7002 171.091 18.1968C171.091 18.1181 171.081 18.0702 171.072 18.0442C171.064 18.0215 171.056 18.0143 171.056 18.0143C171.056 18.0143 171.045 18.0032 171.012 17.9929C170.977 17.9817 170.919 17.971 170.831 17.971H168.218C168.078 17.971 168.014 17.9977 167.992 18.0111C167.98 18.0181 167.966 18.0274 167.952 18.0654C167.882 18.3097 167.847 18.5506 167.846 18.7893C167.852 18.9589 167.841 19.161 167.758 19.34C167.713 19.4395 167.638 19.5463 167.52 19.6268C167.399 19.7091 167.266 19.7413 167.143 19.7413C166.889 19.7413 166.698 19.5929 166.591 19.4936C165.854 18.8922 165.061 18.4204 164.212 18.076L164.205 18.073C163.381 17.7234 162.484 17.5461 161.508 17.5461ZM156.928 17.8543C158.21 16.9744 159.745 16.5461 161.508 16.5461C162.607 16.5461 163.636 16.746 164.591 17.1507C165.397 17.4782 166.156 17.9083 166.866 18.4397C166.888 18.2161 166.932 17.9937 166.997 17.7728L167 17.7636L167.003 17.7546C167.087 17.5036 167.245 17.2923 167.48 17.1522C167.705 17.0181 167.962 16.971 168.218 16.971H170.831C171.156 16.971 171.492 17.0481 171.746 17.2907C172.004 17.5375 172.09 17.8717 172.09 18.1968C172.09 18.7063 172.084 19.2158 172.072 19.7253V21.2416C172.072 22.5375 172.078 23.8392 172.09 25.1468C172.115 26.4567 172.134 27.7606 172.146 29.0587C172.158 29.6699 172.17 30.287 172.183 30.91C172.208 31.5288 172.22 32.1534 172.22 32.7837C172.22 33.1115 172.136 33.4486 171.88 33.6989C171.626 33.9471 171.288 34.0272 170.961 34.0272H168.051C167.632 34.0272 167.175 33.8962 166.954 33.4474L166.949 33.4374C166.81 33.1385 166.758 32.8078 166.774 32.4609C166.776 32.3964 166.778 32.3339 166.78 32.2732C165.998 32.8513 165.165 33.3286 164.28 33.7043L164.275 33.7062C163.21 34.146 162.063 34.3636 160.841 34.3636C159.158 34.3636 157.709 33.9795 156.522 33.181C155.358 32.3976 154.477 31.3585 153.883 30.0726L153.88 30.0671C153.306 28.7833 153.021 27.3972 153.021 25.9151V25.6236C153.047 24.0675 153.384 22.5988 154.033 21.2229L154.034 21.2194C154.702 19.8315 155.668 18.707 156.928 17.8543ZM159.908 20.7833C160.689 20.2905 161.586 20.0512 162.583 20.0512C163.521 20.0512 164.421 20.2501 165.276 20.6461C166.159 21.0544 166.849 21.679 167.333 22.5125L167.339 22.5221L167.344 22.532C167.388 22.615 167.446 22.7403 167.518 22.8997C167.604 23.0651 167.686 23.2479 167.711 23.4158L167.712 23.4207C167.742 23.6375 167.748 23.8773 167.734 24.1356L167.734 24.137C167.722 24.3537 167.716 24.5509 167.716 24.729V25.9431C167.729 26.3586 167.735 26.7741 167.735 27.1897C167.735 27.2733 167.716 27.3443 167.706 27.3784C167.694 27.4212 167.678 27.4639 167.662 27.5034C167.631 27.5813 167.589 27.6734 167.538 27.7762C167.455 27.9574 167.395 28.0868 167.363 28.1476L167.357 28.1588C166.888 29.0021 166.224 29.6319 165.372 30.0322L165.369 30.0336C164.557 30.4083 163.676 30.5929 162.732 30.5929C161.732 30.5929 160.818 30.3464 160.005 29.8462L160.002 29.8442C159.215 29.3515 158.593 28.6997 158.144 27.8936C157.694 27.0863 157.469 26.2116 157.469 25.2778C157.469 24.3497 157.679 23.4883 158.104 22.703L158.105 22.7002C158.541 21.9063 159.144 21.2653 159.908 20.7833ZM162.583 21.0512C161.752 21.0512 161.043 21.2487 160.44 21.6292C159.821 22.0203 159.336 22.5353 158.981 23.1806C158.641 23.8111 158.468 24.5071 158.468 25.2778C158.468 26.0435 158.651 26.7502 159.016 27.4064C159.382 28.0631 159.885 28.5911 160.53 28.9952C161.174 29.3913 161.904 29.5929 162.732 29.5929C163.542 29.5929 164.278 29.4355 164.949 29.1262C165.601 28.8194 166.11 28.3421 166.481 27.6785C166.5 27.6409 166.549 27.5375 166.633 27.353L166.639 27.3402C166.686 27.2449 166.717 27.1771 166.735 27.1326L166.736 27.1291C166.735 26.7412 166.729 26.3533 166.718 25.9655L166.717 25.958V24.729C166.717 24.5298 166.724 24.3142 166.737 24.0828C166.748 23.8738 166.742 23.7035 166.723 23.5678C166.723 23.5678 166.723 23.567 166.723 23.5639L167.217 23.4899L166.722 23.5591C166.723 23.562 166.723 23.5649 166.723 23.5678C166.722 23.5642 166.718 23.5492 166.707 23.5204C166.69 23.4792 166.664 23.4231 166.626 23.3502L166.619 23.3368L166.613 23.323C166.543 23.1672 166.494 23.0639 166.464 23.0056C166.466 23.009 166.468 23.0123 166.47 23.0157L166.902 22.7641L166.459 22.9962C166.461 22.9992 166.463 23.0023 166.464 23.0056C166.085 22.3571 165.553 21.8757 164.857 21.5539C164.132 21.2182 163.375 21.0512 162.583 21.0512Z" fill="url(#paint2_linear_111_36)"/>
<path d="M134.21 33.5271C133.704 33.5271 133.45 33.2792 133.45 32.7835C133.45 32.1345 133.456 31.4913 133.469 30.854C133.493 30.2049 133.512 29.5558 133.524 28.9067C133.549 27.5495 133.568 26.1923 133.58 24.8351C133.592 23.4779 133.599 22.1207 133.599 20.7635C133.599 19.4063 133.592 18.0491 133.58 16.6919C133.568 15.3347 133.549 13.9776 133.524 12.6204C133.512 11.9713 133.493 11.3281 133.469 10.6908C133.456 10.0417 133.45 9.3926 133.45 8.74351C133.45 8.24784 133.704 8 134.21 8H137.027C137.324 8 137.515 8.05901 137.602 8.17703C137.701 8.29504 137.762 8.47797 137.787 8.7258C137.812 8.87923 137.818 9.04445 137.806 9.22147C137.793 9.3985 137.793 9.56962 137.806 9.73485L137.824 12.107C137.837 13.2872 137.843 14.4732 137.843 15.6652C137.855 16.8454 137.861 18.0314 137.861 19.2234C137.861 19.247 137.861 19.3178 137.861 19.4358C137.874 19.5421 137.917 19.5952 137.991 19.5952C138.053 19.5952 138.115 19.5657 138.176 19.5066C138.238 19.4476 138.281 19.4004 138.306 19.365C139.801 17.819 141.692 17.046 143.977 17.046C144.954 17.046 145.862 17.2348 146.702 17.6125C147.542 17.9783 148.222 18.5153 148.741 19.2234C149.272 19.9315 149.538 20.7812 149.538 21.7726C149.538 23.6018 149.556 25.437 149.593 27.2781C149.643 29.1191 149.667 30.9543 149.667 32.7835C149.667 33.2792 149.414 33.5271 148.907 33.5271H145.998C145.701 33.5271 145.503 33.468 145.405 33.35C145.318 33.232 145.262 33.0491 145.238 32.8013C145.188 32.4 145.17 31.9161 145.182 31.3496C145.207 30.7714 145.213 30.2698 145.201 29.8449C145.188 28.7474 145.182 27.6557 145.182 26.57C145.182 25.4724 145.182 24.3748 145.182 23.2773C145.182 22.4394 144.935 21.8139 144.441 21.4008C143.947 20.976 143.279 20.7635 142.439 20.7635C141.401 20.7635 140.549 21.0763 139.881 21.7018C139.227 22.3154 138.739 23.0708 138.417 23.9677C138.096 24.8646 137.935 25.7379 137.935 26.5877C137.935 27.6262 137.929 28.6648 137.917 29.7033C137.905 30.7301 137.892 31.7627 137.88 32.8013C137.88 33.2851 137.627 33.5271 137.12 33.5271H134.21Z" fill="url(#paint3_linear_111_36)"/>
<path fill-rule="evenodd" clip-rule="evenodd" d="M133.97 8.57962C133.96 8.60903 133.95 8.66077 133.95 8.74351C133.95 9.38778 133.956 10.0321 133.968 10.6763C133.993 11.3154 134.011 11.9602 134.024 12.6108C134.048 13.9695 134.067 15.3287 134.079 16.6874C134.092 18.0461 134.098 19.4048 134.098 20.7635C134.098 22.1222 134.092 23.481 134.079 24.8397C134.067 26.1984 134.048 27.5571 134.024 28.9158C134.011 29.5665 133.993 30.2176 133.968 30.8683C133.956 31.5008 133.95 32.1392 133.95 32.7835C133.95 32.8663 133.96 32.918 133.97 32.9474C133.979 32.974 133.988 32.982 133.989 32.9836C133.991 32.9853 134.001 32.9949 134.032 33.0052C134.066 33.0162 134.123 33.0271 134.21 33.0271H137.12C137.208 33.0271 137.266 33.0163 137.301 33.0052C137.334 32.9948 137.345 32.9838 137.345 32.9838C137.345 32.9838 137.353 32.9772 137.361 32.9539C137.37 32.9279 137.38 32.88 137.38 32.8013V32.7953L137.417 29.6974C137.43 28.6608 137.436 27.6242 137.436 26.5877C137.436 25.6739 137.609 24.7435 137.947 23.7989C138.294 22.8319 138.824 22.008 139.54 21.3367C140.313 20.6126 141.293 20.2635 142.439 20.2635C143.362 20.2635 144.155 20.4978 144.764 21.0192C145.402 21.5541 145.682 22.3402 145.682 23.2773V26.57C145.682 27.6524 145.688 28.7407 145.7 29.8349C145.713 30.2728 145.706 30.7836 145.681 31.3657C145.67 31.9146 145.688 32.3712 145.733 32.7401L145.735 32.7516C145.748 32.8833 145.769 32.9633 145.785 33.0079C145.826 33.0177 145.894 33.0271 145.998 33.0271H148.907C148.995 33.0271 149.051 33.0162 149.085 33.0052C149.117 32.9949 149.127 32.9853 149.128 32.9836C149.13 32.982 149.138 32.974 149.147 32.9474C149.157 32.918 149.168 32.8663 149.168 32.7835C149.168 30.9588 149.143 29.1281 149.094 27.2915L149.094 27.2881C149.057 25.4437 149.038 23.6052 149.038 21.7726C149.038 20.876 148.8 20.1349 148.341 19.5237L148.338 19.5192C147.874 18.8856 147.266 18.4032 146.503 18.071L146.497 18.0686C145.725 17.7216 144.887 17.546 143.977 17.546C141.828 17.546 140.077 18.2633 138.686 19.6907C138.637 19.7542 138.577 19.815 138.521 19.8684C138.402 19.9818 138.224 20.0952 137.991 20.0952C137.818 20.0952 137.641 20.0249 137.516 19.8713C137.409 19.7403 137.377 19.5926 137.365 19.4937L137.362 19.4649V19.224C137.362 18.0337 137.356 16.8488 137.343 15.6704L137.343 15.6652C137.343 14.475 137.337 13.2906 137.325 12.1122L137.325 12.1109L137.306 9.75489C137.293 9.56951 137.294 9.37998 137.307 9.18662C137.318 9.04253 137.312 8.9161 137.294 8.8054L137.292 8.79049L137.29 8.77547C137.275 8.62577 137.247 8.55024 137.231 8.51791C137.195 8.50921 137.13 8.5 137.027 8.5H134.21C134.123 8.5 134.066 8.51088 134.032 8.52188C134.001 8.53213 133.991 8.54174 133.989 8.54346C133.988 8.54505 133.979 8.55304 133.97 8.57962ZM138.36 18.6174C139.887 17.2345 141.769 16.546 143.977 16.546C145.019 16.546 145.996 16.7477 146.904 17.1552C147.819 17.5543 148.569 18.1446 149.142 18.9254C149.744 19.7299 150.037 20.6875 150.037 21.7726C150.037 23.598 150.056 25.4293 150.092 27.2665C150.142 29.1114 150.167 30.9504 150.167 32.7835C150.167 33.1114 150.082 33.4485 149.826 33.6988C149.573 33.947 149.235 34.0271 148.907 34.0271H145.998C145.678 34.0271 145.274 33.972 145.022 33.6713L145.011 33.6589L145.002 33.6458C144.839 33.4229 144.77 33.1368 144.741 32.8568C144.689 32.4255 144.67 31.918 144.683 31.3387L144.683 31.3283C144.707 30.758 144.713 30.269 144.701 29.8595L144.701 29.8506C144.689 28.7511 144.683 27.6576 144.683 26.57V23.2773C144.683 22.5398 144.469 22.0759 144.121 21.7846L144.115 21.7802C143.735 21.4535 143.195 21.2635 142.439 21.2635C141.51 21.2635 140.785 21.5399 140.223 22.0667C139.629 22.6229 139.184 23.3096 138.887 24.1365C138.583 24.9857 138.435 25.802 138.435 26.5877C138.435 27.6282 138.429 28.6687 138.416 29.7093L138.379 32.8045C138.379 33.1286 138.292 33.4614 138.035 33.7074C137.781 33.9499 137.444 34.0271 137.12 34.0271H134.21C133.883 34.0271 133.545 33.947 133.291 33.6988C133.035 33.4485 132.951 33.1114 132.951 32.7835C132.951 32.1313 132.957 31.4849 132.969 30.8443L132.97 30.8349C132.994 30.189 133.013 29.5431 133.025 28.8972C133.05 27.5415 133.068 26.1862 133.081 24.8306C133.093 23.4749 133.099 22.1192 133.099 20.7635C133.099 19.4079 133.093 18.0522 133.081 16.6965C133.068 15.3408 133.05 13.9852 133.025 12.6295C133.013 11.9836 132.994 11.3441 132.97 10.7102L132.969 10.7003C132.957 10.048 132.951 9.39578 132.951 8.74351C132.951 8.41566 133.035 8.0786 133.291 7.8283C133.545 7.58007 133.883 7.5 134.21 7.5H137.027C137.204 7.5 137.38 7.517 137.54 7.56638C137.697 7.61462 137.868 7.70357 137.994 7.86719C138.176 8.09094 138.253 8.37926 138.283 8.66124C138.312 8.85277 138.318 9.05172 138.304 9.25633C138.293 9.411 138.293 9.55795 138.304 9.69752L138.305 9.71421L138.324 12.1017C138.336 13.2826 138.342 14.47 138.342 15.6626C138.352 16.6435 138.358 17.6284 138.36 18.6174Z" fill="url(#paint4_linear_111_36)"/>
<path d="M120.923 33.8636C119.984 33.8636 119.082 33.7219 118.217 33.4387C117.365 33.1555 116.574 32.7188 115.845 32.1287C115.808 32.1051 115.765 32.0756 115.715 32.0402C115.678 31.993 115.629 31.9694 115.567 31.9694C115.505 31.9694 115.468 32.0166 115.456 32.111C115.443 32.1936 115.437 32.2526 115.437 32.288C115.413 33.0551 115.4 33.8281 115.4 34.6071C115.4 35.3978 115.388 36.1767 115.363 36.9438C115.363 37.227 115.363 37.5162 115.363 37.8112C115.376 38.1181 115.369 38.4131 115.345 38.6963C115.32 38.9324 115.252 39.1094 115.141 39.2274C115.042 39.3454 114.857 39.4044 114.585 39.4044H111.601C111.107 39.4044 110.859 39.1566 110.859 38.6609C110.859 37.7522 110.878 36.8376 110.915 35.917C110.964 34.9965 111.002 34.0878 111.026 33.1909C111.076 31.2672 111.113 29.3494 111.137 27.4375C111.162 25.5139 111.175 23.5902 111.175 21.6665C111.175 21.0882 111.168 20.5099 111.156 19.9317C111.156 19.3534 111.156 18.7751 111.156 18.1968C111.156 17.7129 111.409 17.471 111.916 17.471H114.307C114.69 17.471 114.925 17.6185 115.011 17.9136C115.11 18.2086 115.165 18.5037 115.178 18.7987C115.19 19.0819 115.264 19.2236 115.4 19.2236C115.45 19.2236 115.518 19.1941 115.604 19.135C116.506 18.4741 117.445 17.9608 118.421 17.5949C119.397 17.2291 120.46 17.0461 121.609 17.0461C123.351 17.0461 124.815 17.4356 126.002 18.2145C127.188 18.9934 128.084 20.032 128.689 21.3302C129.294 22.6283 129.597 24.0504 129.597 25.5965C129.597 27.2841 129.239 28.7475 128.522 29.9867C127.818 31.2259 126.817 32.1818 125.52 32.8545C124.222 33.5272 122.69 33.8636 120.923 33.8636ZM120.052 30.2345C120.991 30.2345 121.844 30.028 122.61 29.6149C123.388 29.2019 124.006 28.6413 124.463 27.9332C124.933 27.2133 125.168 26.4049 125.168 25.508C125.168 24.1036 124.692 22.9529 123.74 22.056C122.789 21.1472 121.578 20.6929 120.108 20.6929C119.058 20.6929 118.125 20.9466 117.309 21.4541C116.494 21.9615 115.901 22.6873 115.53 23.6315C115.53 24.2216 115.524 24.8117 115.511 25.4017C115.511 25.9918 115.511 26.5819 115.511 27.172C115.511 27.231 115.549 27.3549 115.623 27.5437C115.709 27.7326 115.765 27.8565 115.789 27.9155C116.185 28.6826 116.778 29.2609 117.569 29.6503C118.359 30.0398 119.187 30.2345 120.052 30.2345Z" fill="url(#paint5_linear_111_36)"/>
<path fill-rule="evenodd" clip-rule="evenodd" d="M121.609 17.5461C120.514 17.5461 119.511 17.7204 118.596 18.0632C117.666 18.4119 116.767 18.9027 115.899 19.5385L115.892 19.5435L115.885 19.5482C115.791 19.6129 115.613 19.7236 115.4 19.7236C115.11 19.7236 114.905 19.55 114.8 19.3494C114.712 19.1812 114.686 18.9873 114.679 18.8205C114.669 18.5749 114.622 18.3254 114.538 18.0726L114.534 18.0635L114.532 18.0544C114.524 18.0288 114.517 18.0175 114.514 18.0139C114.512 18.011 114.51 18.0086 114.505 18.0051C114.492 17.997 114.439 17.971 114.307 17.971H111.916C111.827 17.971 111.77 17.9817 111.735 17.9929C111.702 18.0032 111.691 18.0142 111.691 18.0142C111.691 18.0142 111.683 18.0215 111.675 18.0442C111.666 18.0702 111.655 18.1181 111.655 18.1968V19.9263C111.668 20.5064 111.674 21.0864 111.674 21.6665C111.674 23.5923 111.662 25.5181 111.637 27.444C111.612 29.358 111.575 31.2779 111.526 33.2037C111.501 34.104 111.464 35.0169 111.414 35.9405C111.377 36.8533 111.359 37.7601 111.359 38.6609C111.359 38.7448 111.37 38.7978 111.38 38.8284C111.389 38.8565 111.398 38.8653 111.398 38.8653C111.398 38.8653 111.407 38.8746 111.435 38.8837C111.465 38.8938 111.517 38.9044 111.601 38.9044H114.585C114.688 38.9044 114.748 38.8928 114.776 38.8837L114.779 38.8829C114.79 38.8705 114.83 38.8131 114.847 38.6483C114.87 38.3892 114.876 38.117 114.864 37.8314L114.864 37.8213V36.9357L114.864 36.9277C114.889 36.1661 114.901 35.3926 114.901 34.6071C114.901 33.8249 114.913 33.0485 114.938 32.2779C114.939 32.205 114.95 32.1193 114.961 32.0408C114.973 31.9518 115.005 31.8175 115.1 31.6958C115.217 31.5474 115.388 31.4694 115.567 31.4694C115.746 31.4694 115.916 31.535 116.045 31.6613C116.072 31.6799 116.094 31.695 116.113 31.7068L116.137 31.722L116.159 31.7399C116.843 32.2937 117.581 32.7003 118.374 32.9638C119.187 33.2299 120.036 33.3636 120.923 33.3636C122.627 33.3636 124.077 33.0395 125.29 32.4105C126.504 31.781 127.433 30.8924 128.088 29.7394L128.09 29.7362C128.755 28.5857 129.098 27.212 129.098 25.5965C129.098 24.1177 128.809 22.7685 128.236 21.5417C127.67 20.3268 126.836 19.3601 125.728 18.6326C124.64 17.9182 123.276 17.5461 121.609 17.5461ZM118.246 17.1267C119.284 16.7378 120.406 16.5461 121.609 16.5461C123.426 16.5461 124.991 16.953 126.276 17.7964C127.54 18.6267 128.497 19.7371 129.142 21.1186C129.78 22.4882 130.097 23.9832 130.097 25.5965C130.097 27.3555 129.723 28.908 128.955 30.2356C128.202 31.5602 127.13 32.5829 125.749 33.2985C124.368 34.0149 122.754 34.3636 120.923 34.3636C119.933 34.3636 118.979 34.2141 118.062 33.9139L118.06 33.9132C117.299 33.6605 116.586 33.294 115.922 32.816C115.907 33.4094 115.9 34.0064 115.9 34.6071C115.9 35.4002 115.887 36.1818 115.863 36.9518V37.8008C115.875 38.1236 115.869 38.437 115.842 38.7399L115.841 38.7485C115.811 39.0406 115.721 39.3346 115.513 39.5604C115.267 39.844 114.893 39.9044 114.585 39.9044H111.601C111.276 39.9044 110.942 39.8228 110.691 39.5718C110.441 39.321 110.36 38.9856 110.36 38.6609C110.36 37.7454 110.379 36.8241 110.416 35.8969L110.416 35.8902C110.465 34.9741 110.502 34.0698 110.527 33.1775C110.576 31.2561 110.613 29.3406 110.638 27.4311C110.663 25.5096 110.675 23.588 110.675 21.6665C110.675 21.0918 110.669 20.5171 110.657 19.9423L110.656 19.9317L110.657 18.1968C110.657 17.8717 110.743 17.5375 111.001 17.2907C111.255 17.0481 111.591 16.971 111.916 16.971H114.307C114.558 16.971 114.814 17.0188 115.036 17.1582C115.265 17.3021 115.413 17.5159 115.487 17.7628C115.567 18.0025 115.622 18.2443 115.653 18.4879C116.484 17.9175 117.349 17.463 118.246 17.1267ZM115.588 18.7815L115.589 18.7823C115.647 18.8215 115.675 18.866 115.685 18.8852C115.69 18.8946 115.692 18.9001 115.692 18.9001C115.692 18.9001 115.69 18.8954 115.688 18.8847C115.684 18.8638 115.679 18.8292 115.677 18.7775L115.587 18.7808C115.525 18.7399 115.457 18.7236 115.4 18.7236C115.37 18.7236 115.346 18.7272 115.329 18.7308L115.323 18.7219C115.321 18.7233 115.319 18.7246 115.317 18.7258C115.314 18.7278 115.312 18.7297 115.309 18.7316M115.369 18.7903L115.587 18.7808L115.588 18.7815M115.369 18.7903L115.329 18.7308ZM117.046 21.0294C117.948 20.4681 118.973 20.1929 120.108 20.1929C121.69 20.1929 123.029 20.6856 124.084 21.6931C125.143 22.6918 125.667 23.9776 125.667 25.508C125.667 26.4972 125.407 27.4011 124.882 28.2056C124.377 28.9879 123.694 29.6051 122.845 30.0559C122.001 30.5108 121.067 30.7345 120.052 30.7345C119.109 30.7345 118.206 30.5216 117.348 30.099C116.464 29.6634 115.791 29.0093 115.346 28.1448L115.337 28.1271L115.329 28.1088C115.308 28.0588 115.256 27.9427 115.169 27.7522L115.163 27.7396L115.158 27.7267C115.118 27.6257 115.085 27.5332 115.061 27.4526C115.041 27.386 115.012 27.28 115.012 27.172V25.3913C115.024 24.8047 115.031 24.2181 115.031 23.6315V23.5368L115.065 23.4486C115.473 22.4102 116.134 21.597 117.046 21.0294ZM120.108 21.1929C119.142 21.1929 118.302 21.4251 117.573 21.8787C116.878 22.311 116.364 22.9215 116.029 23.7288C116.029 24.2882 116.023 24.8476 116.011 25.407V27.1409C116.012 27.1468 116.015 27.1555 116.018 27.1657C116.03 27.207 116.051 27.2669 116.083 27.3483C116.157 27.512 116.212 27.6319 116.242 27.7023C116.587 28.364 117.098 28.8612 117.789 29.2017C118.513 29.558 119.265 29.7345 120.052 29.7345C120.915 29.7345 121.685 29.5455 122.373 29.1747L122.376 29.1732C123.083 28.7982 123.635 28.2948 124.044 27.6618L124.045 27.6598C124.459 27.0249 124.668 26.3122 124.668 25.508C124.668 24.2301 124.241 23.2149 123.398 22.42L123.396 22.4177C122.548 21.6085 121.466 21.1929 120.108 21.1929Z" fill="url(#paint6_linear_111_36)"/>
<path d="M101.854 8.7258C101.854 8.24193 102.107 8 102.614 8H105.542C106.049 8 106.302 8.24193 106.302 8.7258C106.302 10.7321 106.296 12.7384 106.284 14.7447C106.271 16.751 106.265 18.7572 106.265 20.7635C106.265 22.7698 106.271 24.7761 106.284 26.7824C106.296 28.7887 106.302 30.795 106.302 32.8013C106.302 33.2851 106.049 33.5271 105.542 33.5271H102.614C102.107 33.5271 101.854 33.2851 101.854 32.8013C101.854 30.795 101.86 28.7887 101.873 26.7824C101.885 24.7761 101.891 22.7698 101.891 20.7635C101.891 18.7572 101.885 16.751 101.873 14.7447C101.86 12.7384 101.854 10.7321 101.854 8.7258Z" fill="url(#paint7_linear_111_36)"/>
<path fill-rule="evenodd" clip-rule="evenodd" d="M102.373 8.57318C102.364 8.5992 102.353 8.6471 102.353 8.7258C102.353 10.7311 102.36 12.7363 102.372 14.7416C102.384 16.7489 102.39 18.7562 102.39 20.7635C102.39 22.7708 102.384 24.7782 102.372 26.7855C102.36 28.7907 102.353 30.796 102.353 32.8013C102.353 32.88 102.364 32.9279 102.373 32.9539C102.381 32.9765 102.389 32.9838 102.389 32.9838C102.389 32.9838 102.4 32.9948 102.433 33.0052C102.468 33.0163 102.525 33.0271 102.614 33.0271H105.542C105.631 33.0271 105.688 33.0163 105.723 33.0052C105.756 32.9948 105.767 32.9838 105.767 32.9838C105.767 32.9838 105.775 32.9765 105.783 32.9539C105.792 32.9279 105.803 32.88 105.803 32.8013C105.803 30.796 105.796 28.7907 105.784 26.7855C105.772 24.7782 105.766 22.7708 105.766 20.7635C105.766 18.7562 105.772 16.7489 105.784 14.7416C105.796 12.7363 105.803 10.7311 105.803 8.7258C105.803 8.6471 105.792 8.5992 105.783 8.57318C105.775 8.55054 105.767 8.54329 105.767 8.54329C105.767 8.54329 105.756 8.53221 105.723 8.52185C105.688 8.51074 105.631 8.5 105.542 8.5H102.614C102.525 8.5 102.468 8.51074 102.433 8.52185C102.4 8.53221 102.389 8.54319 102.389 8.54319C102.389 8.54319 102.381 8.55054 102.373 8.57318ZM101.699 7.81969C101.953 7.57711 102.289 7.5 102.614 7.5H105.542C105.867 7.5 106.203 7.57711 106.457 7.81969C106.715 8.06646 106.802 8.40065 106.802 8.7258C106.802 10.7331 106.795 12.7404 106.783 14.7477C106.771 16.753 106.764 18.7583 106.764 20.7635C106.764 22.7688 106.771 24.774 106.783 26.7793C106.795 28.7866 106.802 30.7939 106.802 32.8013C106.802 33.1264 106.715 33.4606 106.457 33.7074C106.203 33.9499 105.867 34.0271 105.542 34.0271H102.614C102.289 34.0271 101.953 33.9499 101.699 33.7074C101.441 33.4606 101.355 33.1264 101.355 32.8013C101.355 30.7939 101.361 28.7866 101.373 26.7793C101.385 24.774 101.392 22.7688 101.392 20.7635C101.392 18.7583 101.385 16.753 101.373 14.7477C101.361 12.7404 101.355 10.7331 101.355 8.7258C101.355 8.40065 101.441 8.06646 101.699 7.81969Z" fill="url(#paint8_linear_111_36)"/>
<path d="M86.2319 33.8636C84.6257 33.8636 83.2789 33.4977 82.1915 32.766C81.1042 32.0343 80.2826 31.0666 79.7265 29.8628C79.1829 28.6472 78.9111 27.3313 78.9111 25.9151V25.6319C78.9358 24.1449 79.257 22.7464 79.8748 21.4364C80.505 20.1264 81.4131 19.0701 82.5993 18.2676C83.7855 17.4533 85.2187 17.0461 86.8991 17.0461C87.937 17.0461 88.9008 17.235 89.7904 17.6126C90.6924 17.9785 91.5326 18.48 92.311 19.1173C92.3975 19.2 92.4716 19.2413 92.5334 19.2413C92.6817 19.2413 92.7496 19.0937 92.7373 18.7987C92.7373 18.5037 92.7805 18.2086 92.867 17.9136C92.9659 17.6185 93.213 17.471 93.6084 17.471H96.2216C96.7282 17.471 96.9815 17.7129 96.9815 18.1968C96.9815 18.7043 96.9754 19.2118 96.963 19.7192C96.963 20.2267 96.963 20.7342 96.963 21.2416C96.963 22.5398 96.9692 23.8439 96.9815 25.1539C97.0062 26.4639 97.0248 27.768 97.0371 29.0662C97.0495 29.6798 97.0618 30.2994 97.0742 30.9249C97.0989 31.5386 97.1113 32.1582 97.1113 32.7837C97.1113 33.2794 96.858 33.5272 96.3514 33.5272H93.4416C93.108 33.5272 92.8917 33.4269 92.7929 33.2263C92.694 33.0138 92.6508 32.766 92.6632 32.4828C92.6755 32.1995 92.6755 31.9458 92.6632 31.7215C92.6632 31.6861 92.657 31.6271 92.6446 31.5445C92.6323 31.4619 92.5952 31.4206 92.5334 31.4206C92.484 31.4206 92.4346 31.4383 92.3851 31.4737C92.3481 31.5091 92.311 31.5386 92.2739 31.5622C91.409 32.2585 90.4762 32.8191 89.4753 33.244C88.4745 33.657 87.3934 33.8636 86.2319 33.8636ZM88.1224 30.0929C88.9996 30.0929 89.8089 29.9218 90.5503 29.5795C91.304 29.2255 91.8909 28.6708 92.311 27.9155C92.3357 27.8683 92.3913 27.7503 92.4778 27.5614C92.5767 27.3608 92.6261 27.2369 92.6261 27.1897C92.6261 26.7766 92.6199 26.3636 92.6076 25.9505C92.6076 25.5375 92.6076 25.1303 92.6076 24.729C92.6076 24.5402 92.6137 24.3337 92.6261 24.1095C92.6384 23.8734 92.6323 23.6669 92.6076 23.4899C92.5952 23.4073 92.5458 23.2833 92.4593 23.1181C92.3851 22.9529 92.3295 22.8349 92.2925 22.7641C91.86 22.0206 91.2484 21.4659 90.4576 21.1C89.6669 20.7342 88.839 20.5512 87.9741 20.5512C87.0598 20.5512 86.2566 20.7696 85.5647 21.2062C84.8728 21.6429 84.3291 22.2212 83.9337 22.9411C83.5507 23.6492 83.3592 24.4281 83.3592 25.2778C83.3592 26.1275 83.563 26.9183 83.9708 27.65C84.3785 28.3817 84.9407 28.9717 85.6574 29.4202C86.3864 29.8687 87.208 30.0929 88.1224 30.0929Z" fill="url(#paint9_linear_111_36)"/>
<path fill-rule="evenodd" clip-rule="evenodd" d="M86.8991 17.5461C85.3021 17.5461 83.9715 17.9319 82.8817 18.68L82.8789 18.6819C81.7676 19.4338 80.918 20.4209 80.3256 21.6516C79.74 22.8939 79.4346 24.2203 79.4105 25.6361V25.9151C79.4105 27.2643 79.6688 28.5091 80.1811 29.6557C80.6992 30.776 81.4604 31.6715 82.4702 32.351C83.4581 33.0159 84.7023 33.3636 86.2319 33.3636C87.332 33.3636 88.3472 33.1684 89.2827 32.7826C90.2393 32.3763 91.1319 31.8401 91.961 31.1726L91.9825 31.1552L92.0059 31.1403C92.0114 31.1368 92.0231 31.1285 92.0404 31.1119L92.0659 31.0876L92.0945 31.0671C92.2089 30.9851 92.3578 30.9206 92.5334 30.9206C92.6881 30.9206 92.8544 30.9785 92.9791 31.1174C93.0882 31.239 93.1247 31.3781 93.1385 31.4705C93.1501 31.5476 93.1609 31.632 93.1624 31.7047C93.1753 31.9461 93.1748 32.2132 93.1621 32.5046C93.153 32.7142 93.184 32.8741 93.2377 32.9976L93.2392 32.9983C93.2607 33.0083 93.3202 33.0272 93.4416 33.0272H96.3514C96.4389 33.0272 96.4954 33.0163 96.5291 33.0053C96.5606 32.9951 96.5705 32.9855 96.5722 32.9837C96.5737 32.9823 96.5819 32.9744 96.5911 32.9476C96.6011 32.9182 96.6118 32.8664 96.6118 32.7837C96.6118 32.1648 96.5996 31.5519 96.5752 30.9451L96.5748 30.9348C96.5624 30.3094 96.5502 29.6899 96.5378 29.0762L96.5377 29.0709C96.5254 27.7743 96.5069 26.4718 96.4822 25.1633L96.4821 25.1586C96.4697 23.8471 96.4636 22.5414 96.4636 21.2416V19.707C96.4758 19.2036 96.4821 18.7002 96.4821 18.1968C96.4821 18.1181 96.4716 18.0702 96.4625 18.0442C96.4546 18.0215 96.4469 18.0143 96.4469 18.0143C96.4469 18.0143 96.4353 18.0032 96.4027 17.9929C96.3679 17.9817 96.3101 17.971 96.2216 17.971H93.6084C93.4684 17.971 93.4048 17.9977 93.3823 18.0111C93.3705 18.0181 93.3569 18.0274 93.343 18.0654C93.2725 18.3097 93.2376 18.5506 93.2367 18.7893C93.243 18.9589 93.2316 19.161 93.1491 19.34C93.1033 19.4395 93.0287 19.5463 92.9108 19.6268C92.7901 19.7091 92.657 19.7413 92.5334 19.7413C92.2795 19.7413 92.0884 19.5929 91.9816 19.4936C91.2444 18.8922 90.4518 18.4204 89.6029 18.076L89.5954 18.073C88.7719 17.7234 87.8751 17.5461 86.8991 17.5461ZM82.3183 17.8543C83.6006 16.9744 85.136 16.5461 86.8991 16.5461C87.9976 16.5461 89.027 16.746 89.9817 17.1507C90.788 17.4782 91.5463 17.9083 92.2562 18.4397C92.279 18.2161 92.323 17.9937 92.3878 17.7728L92.3905 17.7636L92.3935 17.7546C92.4776 17.5036 92.6361 17.2923 92.8707 17.1522C93.0953 17.0181 93.353 16.971 93.6084 16.971H96.2216C96.5462 16.971 96.8824 17.0481 97.1363 17.2907C97.3947 17.5375 97.481 17.8717 97.481 18.1968C97.481 18.7063 97.4748 19.2158 97.4624 19.7253V21.2416C97.4624 22.5375 97.4686 23.8392 97.4809 25.1468C97.5056 26.4567 97.5242 27.7606 97.5365 29.0587C97.5488 29.6699 97.5611 30.287 97.5734 30.91C97.5983 31.5288 97.6107 32.1534 97.6107 32.7837C97.6107 33.1115 97.5262 33.4486 97.2704 33.6989C97.0167 33.9471 96.6788 34.0272 96.3514 34.0272H93.4416C93.0229 34.0272 92.5661 33.8962 92.345 33.4474L92.3401 33.4374C92.2009 33.1385 92.1491 32.8078 92.1642 32.4609C92.167 32.3964 92.1691 32.3339 92.1706 32.2732C91.389 32.8513 90.5554 33.3286 89.6703 33.7043L89.6657 33.7062C88.6002 34.146 87.4539 34.3636 86.2319 34.3636C84.549 34.3636 83.0996 33.9795 81.9129 33.181C80.7488 32.3976 79.8672 31.3585 79.2732 30.0726L79.2707 30.0671C78.6965 28.7833 78.4116 27.3972 78.4116 25.9151V25.6236C78.4375 24.0675 78.7743 22.5988 79.4232 21.2229L79.4248 21.2194C80.0925 19.8315 81.0584 18.707 82.3183 17.8543ZM85.2984 20.7833C86.0792 20.2905 86.977 20.0512 87.9741 20.0512C88.9119 20.0512 89.8112 20.2501 90.6671 20.6461C91.5496 21.0544 92.2393 21.679 92.7241 22.5125L92.7297 22.5221L92.7348 22.532C92.7783 22.615 92.8371 22.7403 92.9088 22.8997C92.9946 23.0651 93.0764 23.2479 93.1015 23.4158L93.1022 23.4207C93.1325 23.6375 93.1384 23.8773 93.1248 24.1356L93.1248 24.137C93.1128 24.3537 93.107 24.5509 93.107 24.729V25.9431C93.1193 26.3586 93.1255 26.7741 93.1255 27.1897C93.1255 27.2733 93.1064 27.3443 93.0966 27.3784C93.0842 27.4212 93.0686 27.4639 93.0528 27.5034C93.0218 27.5813 92.9794 27.6734 92.9289 27.7762C92.8458 27.9574 92.7852 28.0868 92.7534 28.1476L92.7475 28.1588C92.2785 29.0021 91.6147 29.6319 90.7624 30.0322L90.7594 30.0336C89.9477 30.4083 89.0664 30.5929 88.1224 30.5929C87.1223 30.5929 86.209 30.3464 85.3959 29.8462L85.3926 29.8442C84.6053 29.3515 83.9838 28.6997 83.5346 27.8936C83.0848 27.0863 82.8597 26.2116 82.8597 25.2778C82.8597 24.3497 83.0698 23.4883 83.4945 22.703L83.4961 22.7002C83.9321 21.9063 84.5346 21.2653 85.2984 20.7833ZM87.9741 21.0512C87.1426 21.0512 86.4341 21.2487 85.831 21.6292C85.2114 22.0203 84.7268 22.5353 84.3721 23.1806C84.0314 23.8111 83.8586 24.5071 83.8586 25.2778C83.8586 26.0435 84.0413 26.7502 84.4069 27.4064C84.7729 28.0631 85.2753 28.5911 85.9204 28.9952C86.5649 29.3913 87.2944 29.5929 88.1224 29.5929C88.9323 29.5929 89.6691 29.4355 90.3396 29.1262C90.9921 28.8194 91.5006 28.3421 91.8712 27.6785C91.8904 27.6409 91.9394 27.5375 92.0238 27.353L92.0297 27.3402C92.0767 27.2449 92.1074 27.1771 92.1252 27.1326L92.1266 27.1291C92.126 26.7412 92.1199 26.3533 92.1083 25.9655L92.1081 25.958V24.729C92.1081 24.5298 92.1146 24.3142 92.1274 24.0828C92.1383 23.8738 92.1323 23.7035 92.1141 23.5678C92.1141 23.5678 92.1141 23.567 92.1136 23.5639L92.6076 23.4899L92.1129 23.5591C92.1133 23.562 92.1137 23.5649 92.1141 23.5678C92.1131 23.5642 92.1089 23.5492 92.0974 23.5204C92.081 23.4792 92.0551 23.4231 92.0169 23.3502L92.0099 23.3368L92.0037 23.323C91.9338 23.1672 91.885 23.0639 91.855 23.0056C91.857 23.009 91.8589 23.0123 91.8609 23.0157L92.2925 22.7641L91.8501 22.9962C91.8517 22.9992 91.8533 23.0023 91.855 23.0056C91.4752 22.3571 90.9437 21.8757 90.2481 21.5539C89.5225 21.2182 88.7661 21.0512 87.9741 21.0512Z" fill="url(#paint10_linear_111_36)"/>
<path d="M146.478 46.4092H148.998C149.418 46.4092 149.665 46.6217 149.74 47.0465C149.764 47.1409 149.789 47.3298 149.814 47.613C149.838 47.8962 149.869 48.1618 149.906 48.4096C149.956 48.6575 150.018 48.7814 150.092 48.7814C150.153 48.7814 150.209 48.7578 150.258 48.7106C150.308 48.6516 150.345 48.6044 150.37 48.5689C151.185 47.6366 152.118 46.9757 153.168 46.5863C154.231 46.185 155.386 45.9844 156.634 45.9844C157.647 45.9844 158.63 46.1614 159.581 46.5155C160.545 46.8695 161.255 47.5186 161.712 48.4627C161.737 48.4981 161.762 48.5453 161.786 48.6044C161.811 48.6634 161.854 48.6929 161.916 48.6929C161.966 48.6929 162.009 48.6752 162.046 48.6398C162.083 48.5925 162.114 48.5571 162.139 48.5335C162.905 47.731 163.794 47.1114 164.808 46.6748C165.821 46.2263 166.896 46.0021 168.032 46.0021C169.54 46.0021 170.837 46.4033 171.924 47.2058C173.024 47.9966 173.574 49.1649 173.574 50.711C173.574 51.9501 173.586 53.1952 173.611 54.4462C173.636 55.6854 173.66 56.9245 173.685 58.1637C173.71 58.7538 173.735 59.3498 173.759 59.9517C173.796 60.5418 173.815 61.1318 173.815 61.7219C173.815 62.2176 173.562 62.4654 173.055 62.4654H170.164C169.892 62.4654 169.7 62.4064 169.589 62.2884C169.49 62.1704 169.429 61.9934 169.404 61.7573C169.354 61.2617 169.336 60.7601 169.348 60.2526C169.361 59.7333 169.354 59.2259 169.33 58.7302C169.317 57.668 169.299 56.6059 169.274 55.5437C169.262 54.4816 169.256 53.4194 169.256 52.3573C169.256 51.5312 169.046 50.888 168.625 50.4277C168.218 49.9556 167.569 49.7196 166.679 49.7196C165.654 49.7196 164.783 50.0206 164.066 50.6224C163.35 51.2243 162.8 51.9737 162.417 52.8707C162.046 53.7558 161.861 54.6291 161.861 55.4906C161.861 56.5292 161.867 57.5677 161.879 58.6063C161.892 59.6448 161.898 60.6893 161.898 61.7396C161.898 62.2235 161.644 62.4654 161.138 62.4654H158.209C157.703 62.4654 157.45 62.2235 157.45 61.7396C157.45 60.17 157.462 58.6063 157.487 57.0485C157.511 55.4906 157.511 53.9269 157.487 52.3573C157.474 51.5666 157.264 50.9293 156.856 50.4454C156.461 49.9615 155.825 49.7196 154.948 49.7196C153.897 49.7196 153.014 50.0206 152.297 50.6224C151.581 51.2125 151.037 51.956 150.666 52.853C150.296 53.7499 150.098 54.6409 150.073 55.526C150.061 56.2459 150.048 56.9658 150.036 57.6858C150.024 58.4057 150.005 59.1315 149.98 59.8632C149.98 60.17 149.98 60.4887 149.98 60.8191C149.993 61.1377 149.98 61.4505 149.943 61.7573C149.919 61.9934 149.851 62.1704 149.74 62.2884C149.641 62.4064 149.455 62.4654 149.183 62.4654H146.274C145.767 62.4654 145.514 62.2117 145.514 61.7042C145.514 61.0905 145.526 60.4828 145.551 59.8809C145.588 59.2672 145.613 58.6535 145.625 58.0398C145.699 55.4552 145.736 52.8766 145.736 50.3038C145.736 49.8199 145.724 49.2888 145.699 48.7106C145.674 48.1323 145.681 47.6071 145.718 47.135C145.755 46.6512 146.008 46.4092 146.478 46.4092Z" fill="url(#paint11_linear_111_36)"/>
<path fill-rule="evenodd" clip-rule="evenodd" d="M149.906 48.4096C149.904 48.3935 149.902 48.3773 149.899 48.3611C149.865 48.1272 149.837 47.8778 149.814 47.613C149.789 47.3298 149.764 47.1409 149.74 47.0465C149.665 46.6217 149.418 46.4092 148.998 46.4092H146.478C146.008 46.4092 145.755 46.6512 145.718 47.135C145.681 47.6071 145.674 48.1323 145.699 48.7106C145.724 49.2888 145.736 49.8199 145.736 50.3038C145.736 52.8766 145.699 55.4552 145.625 58.0398C145.613 58.6535 145.588 59.2672 145.551 59.8809C145.526 60.4828 145.514 61.0905 145.514 61.7042C145.514 62.2117 145.767 62.4654 146.274 62.4654H149.183C149.455 62.4654 149.641 62.4064 149.74 62.2884C149.851 62.1704 149.919 61.9934 149.943 61.7573C149.98 61.4505 149.993 61.1377 149.98 60.8191V59.8632C150.005 59.1315 150.024 58.4057 150.036 57.6858L150.073 55.526C150.098 54.6409 150.296 53.7499 150.666 52.853C151.037 51.956 151.581 51.2125 152.297 50.6224C153.014 50.0206 153.897 49.7196 154.948 49.7196C155.825 49.7196 156.461 49.9615 156.856 50.4454C157.264 50.9293 157.474 51.5666 157.487 52.3573C157.511 53.9269 157.511 55.4906 157.487 57.0485C157.462 58.6063 157.45 60.17 157.45 61.7396C157.45 62.2235 157.703 62.4654 158.209 62.4654H161.138C161.644 62.4654 161.898 62.2235 161.898 61.7396C161.898 60.6893 161.892 59.6448 161.879 58.6063C161.867 57.5677 161.861 56.5292 161.861 55.4906C161.861 54.6291 162.046 53.7558 162.417 52.8707C162.8 51.9737 163.35 51.2243 164.066 50.6224C164.783 50.0206 165.654 49.7196 166.679 49.7196C167.569 49.7196 168.218 49.9556 168.625 50.4277C169.046 50.888 169.256 51.5312 169.256 52.3573C169.256 53.4194 169.262 54.4816 169.274 55.5437C169.299 56.6059 169.317 57.668 169.33 58.7302C169.354 59.2259 169.361 59.7333 169.348 60.2526C169.336 60.7601 169.354 61.2617 169.404 61.7573C169.429 61.9934 169.49 62.1704 169.589 62.2884C169.7 62.4064 169.892 62.4654 170.164 62.4654H173.055C173.562 62.4654 173.815 62.2176 173.815 61.7219C173.815 61.1318 173.796 60.5418 173.759 59.9517C173.735 59.3498 173.71 58.7538 173.685 58.1637L173.611 54.4462C173.586 53.1952 173.574 51.9501 173.574 50.711C173.574 49.1649 173.024 47.9966 171.924 47.2058C170.837 46.4033 169.54 46.0021 168.032 46.0021C166.896 46.0021 165.821 46.2263 164.808 46.6748C163.794 47.1114 162.905 47.731 162.139 48.5335C162.114 48.5571 162.083 48.5925 162.046 48.6398C162.009 48.6752 161.966 48.6929 161.916 48.6929C161.854 48.6929 161.811 48.6634 161.786 48.6044C161.762 48.5453 161.737 48.4981 161.712 48.4627C161.255 47.5186 160.545 46.8695 159.581 46.5155C158.63 46.1614 157.647 45.9844 156.634 45.9844C155.386 45.9844 154.231 46.185 153.168 46.5863C152.118 46.9757 151.185 47.6366 150.37 48.5689C150.345 48.6044 150.308 48.6516 150.258 48.7106C150.209 48.7578 150.153 48.7814 150.092 48.7814C150.018 48.7814 149.957 48.6596 149.908 48.416C149.907 48.4139 149.907 48.4118 149.906 48.4096ZM152.993 46.1179C152.006 46.4842 151.122 47.0703 150.34 47.8659C150.33 47.7697 150.32 47.6709 150.311 47.5695C150.288 47.3062 150.262 47.0847 150.228 46.9415C150.176 46.6589 150.055 46.3878 149.824 46.1892C149.586 45.9848 149.292 45.9092 148.998 45.9092H146.478C146.159 45.9092 145.838 45.9924 145.591 46.2289C145.346 46.4628 145.244 46.7787 145.22 47.0959C145.181 47.5919 145.175 48.1377 145.2 48.7319C145.225 49.3044 145.237 49.8283 145.237 50.3038C145.237 52.8718 145.2 55.4456 145.126 58.0254L145.126 58.0297C145.113 58.6367 145.089 59.2437 145.052 59.8507L145.052 59.8603C145.027 60.4692 145.014 61.0838 145.014 61.7042C145.014 62.035 145.097 62.3749 145.351 62.6286C145.604 62.8824 145.943 62.9654 146.274 62.9654H149.183C149.492 62.9654 149.866 62.905 150.112 62.6214C150.319 62.3966 150.409 62.1044 150.44 61.8136C150.479 61.484 150.493 61.1492 150.48 60.8096V59.8722C150.505 59.1406 150.523 58.4143 150.535 57.6943L150.572 55.5374C150.596 54.7196 150.778 53.8893 151.128 53.0441C151.468 52.2195 151.964 51.5442 152.614 51.0086L152.618 51.0055C153.234 50.4885 153.999 50.2196 154.948 50.2196C155.739 50.2196 156.203 50.4358 156.47 50.762L156.475 50.7678C156.791 51.1434 156.976 51.6602 156.987 52.3651C157.012 53.9295 157.012 55.488 156.987 57.0405C156.963 58.601 156.95 60.1674 156.95 61.7396C156.95 62.0648 157.036 62.399 157.295 62.6457C157.549 62.8883 157.885 62.9654 158.209 62.9654H161.138C161.462 62.9654 161.799 62.8883 162.052 62.6457C162.311 62.399 162.397 62.0648 162.397 61.7396C162.397 60.6873 162.391 59.6409 162.379 58.6003C162.366 57.5638 162.36 56.5272 162.36 55.4906C162.36 54.7032 162.529 53.896 162.877 53.0657C163.23 52.2385 163.734 51.5545 164.387 51.0055C165.005 50.4866 165.759 50.2196 166.679 50.2196C167.488 50.2196 167.97 50.4331 168.248 50.7548L168.257 50.765C168.568 51.1065 168.756 51.6146 168.756 52.3573C168.756 53.4214 168.762 54.4855 168.775 55.5496L168.775 55.5554C168.8 56.6156 168.818 57.6758 168.83 58.736L168.83 58.7456L168.831 58.7551C168.855 59.238 168.861 59.7331 168.849 60.2407C168.836 60.7683 168.855 61.2905 168.907 61.807L168.907 61.8095C168.937 62.0948 169.018 62.3843 169.207 62.6097L169.216 62.6209L169.226 62.6315C169.479 62.8997 169.843 62.9654 170.164 62.9654H173.055C173.382 62.9654 173.72 62.8854 173.974 62.6371C174.23 62.3868 174.314 62.0498 174.314 61.7219C174.314 61.1232 174.296 60.5245 174.258 59.9258C174.234 59.3274 174.209 58.7349 174.184 58.1483L174.11 54.4363C174.11 54.4363 174.11 54.4363 174.11 54.4363C174.086 53.1886 174.073 51.9468 174.073 50.711C174.073 49.0311 173.467 47.7005 172.218 46.8016C171.036 45.9296 169.632 45.5021 168.032 45.5021C166.829 45.5021 165.686 45.7398 164.608 46.2165C163.634 46.6364 162.767 47.2163 162.009 47.9542C161.495 47.0504 160.739 46.4085 159.754 46.0464C158.747 45.6719 157.706 45.4844 156.634 45.4844C155.332 45.4844 154.117 45.6937 152.993 46.1179Z" fill="url(#paint12_linear_111_36)"/>
<path d="M134.451 62.8898C132.647 62.8898 131.072 62.5476 129.725 61.8631C128.391 61.1786 127.353 60.2049 126.611 58.9422C125.87 57.6794 125.499 56.1806 125.499 54.4457C125.499 52.8289 125.851 51.3773 126.556 50.0909C127.26 48.8045 128.255 47.7896 129.54 47.046C130.825 46.2907 132.332 45.9131 134.062 45.9131C136.199 45.9131 137.874 46.4855 139.085 47.6302C140.308 48.775 141.136 50.2974 141.568 52.1975C141.58 52.2329 141.587 52.2919 141.587 52.3745C141.587 52.5515 141.537 52.6873 141.438 52.7817C141.352 52.8643 141.234 52.9351 141.086 52.9941C140.666 53.1829 140.221 53.3482 139.752 53.4898C139.282 53.6314 138.825 53.7848 138.38 53.95C137.083 54.4103 135.779 54.8647 134.47 55.3131C133.16 55.7498 131.863 56.216 130.577 56.7116C130.479 56.7588 130.429 56.8178 130.429 56.8887C130.429 56.9241 130.442 56.9654 130.466 57.0126C130.961 57.8623 131.64 58.4937 132.505 58.9067C133.37 59.3198 134.297 59.5263 135.285 59.5263C136.064 59.5263 136.786 59.4083 137.454 59.1723C138.133 58.9362 138.8 58.6412 139.455 58.2872C139.542 58.24 139.628 58.1986 139.715 58.1632C139.801 58.1278 139.888 58.1101 139.974 58.1101C140.147 58.1101 140.277 58.1632 140.363 58.2695C140.462 58.3639 140.543 58.476 140.604 58.6058C140.654 58.6884 140.746 58.8772 140.882 59.1723C141.031 59.4555 141.166 59.7447 141.29 60.0397C141.426 60.3229 141.494 60.5059 141.494 60.5885C141.494 60.7183 141.457 60.8245 141.383 60.9071C141.309 60.9897 141.222 61.0665 141.123 61.1373C140.246 61.7155 139.177 62.1522 137.917 62.4473C136.669 62.7423 135.514 62.8898 134.451 62.8898ZM129.799 54.2687C131.047 53.8556 132.295 53.4426 133.543 53.0295C134.791 52.6164 136.033 52.2034 137.268 51.7903C136.959 51.1412 136.527 50.5748 135.971 50.0909C135.427 49.607 134.754 49.3651 133.951 49.3651C133.012 49.3651 132.233 49.607 131.615 50.0909C130.998 50.5748 130.54 51.1943 130.244 51.9496C129.947 52.6932 129.799 53.4662 129.799 54.2687Z" fill="url(#paint13_linear_111_36)"/>
<path fill-rule="evenodd" clip-rule="evenodd" d="M129.499 62.3089L129.497 62.3081C128.081 61.5814 126.971 60.5423 126.181 59.1955C125.387 57.8428 125 56.2531 125 54.4457C125 52.7536 125.369 51.2179 126.118 49.8506C126.866 48.4834 127.926 47.4026 129.288 46.614C130.661 45.8074 132.258 45.4131 134.062 45.4131C136.289 45.4131 138.099 46.0113 139.427 47.2659C140.729 48.4856 141.599 50.0959 142.051 52.0686C142.083 52.1796 142.086 52.2954 142.086 52.3745C142.086 52.6459 142.008 52.929 141.783 53.1434C141.64 53.2798 141.466 53.3797 141.281 53.4545C140.843 53.6509 140.381 53.8221 139.896 53.9685C139.436 54.1072 138.989 54.2573 138.554 54.4188L138.547 54.4214C137.248 54.8823 135.943 55.3372 134.631 55.7862L134.627 55.7875C133.435 56.1849 132.254 56.6069 131.083 57.0534C131.506 57.6709 132.05 58.1355 132.72 58.4555C133.516 58.8354 134.369 59.0263 135.285 59.0263C136.012 59.0263 136.678 58.9162 137.287 58.7009L137.29 58.6999C137.943 58.4731 138.585 58.1892 139.217 57.8477C139.319 57.7923 139.421 57.7431 139.526 57.7004C139.667 57.6425 139.818 57.6101 139.974 57.6101C140.244 57.6101 140.524 57.6948 140.728 57.9274C140.859 58.0563 140.964 58.205 141.045 58.3702C141.111 58.4839 141.208 58.6859 141.331 58.9515C141.481 59.24 141.62 59.5345 141.746 59.8347C141.814 59.9782 141.871 60.1062 141.911 60.215C141.945 60.3068 141.993 60.4484 141.993 60.5885C141.993 60.8195 141.924 61.0517 141.754 61.2413C141.654 61.3534 141.539 61.4539 141.414 61.5439L141.406 61.5495L141.398 61.5549C140.462 62.1719 139.336 62.6284 138.032 62.9339C136.754 63.236 135.559 63.3898 134.451 63.3898C132.584 63.3898 130.928 63.0353 129.499 62.3089ZM141.29 60.0397C141.166 59.7447 141.031 59.4555 140.882 59.1723C140.746 58.8772 140.654 58.6884 140.604 58.6058C140.543 58.476 140.462 58.3639 140.363 58.2695C140.277 58.1632 140.147 58.1101 139.974 58.1101C139.888 58.1101 139.801 58.1278 139.715 58.1632C139.628 58.1986 139.542 58.24 139.455 58.2872C138.8 58.6412 138.133 58.9362 137.454 59.1723C136.786 59.4083 136.064 59.5263 135.285 59.5263C134.297 59.5263 133.37 59.3198 132.505 58.9067C131.64 58.4937 130.961 57.8623 130.466 57.0126C130.442 56.9654 130.429 56.9241 130.429 56.8887C130.429 56.8178 130.479 56.7588 130.577 56.7116C131.863 56.216 133.16 55.7498 134.47 55.3131C135.779 54.8647 137.083 54.4103 138.38 53.95C138.825 53.7848 139.282 53.6314 139.752 53.4898C140.221 53.3482 140.666 53.1829 141.086 52.9941C141.234 52.9351 141.352 52.8643 141.438 52.7817C141.537 52.6873 141.587 52.5515 141.587 52.3745C141.587 52.2919 141.58 52.2329 141.568 52.1975C141.136 50.2974 140.308 48.775 139.085 47.6302C137.874 46.4855 136.199 45.9131 134.062 45.9131C132.332 45.9131 130.825 46.2907 129.54 47.046C128.255 47.7896 127.26 48.8045 126.556 50.0909C125.851 51.3773 125.499 52.8289 125.499 54.4457C125.499 56.1806 125.87 57.6794 126.611 58.9422C127.353 60.2049 128.391 61.1786 129.725 61.8631C131.072 62.5476 132.647 62.8898 134.451 62.8898C135.514 62.8898 136.669 62.7423 137.917 62.4473C139.177 62.1522 140.246 61.7155 141.123 61.1373C141.222 61.0665 141.309 60.9897 141.383 60.9071C141.457 60.8245 141.494 60.7183 141.494 60.5885C141.494 60.5059 141.426 60.3229 141.29 60.0397ZM135.639 50.4646C135.197 50.0708 134.645 49.8651 133.951 49.8651C133.1 49.8651 132.437 50.0825 131.923 50.4847C131.378 50.9117 130.974 51.4574 130.709 52.1326L130.708 52.1351C130.523 52.5988 130.401 53.0743 130.341 53.5627L133.386 52.5548C134.442 52.2052 135.494 51.8556 136.541 51.506C136.298 51.124 136 50.7783 135.643 50.4682L135.639 50.4646ZM137.028 51.3434C137.115 51.4878 137.195 51.6367 137.268 51.7903C137.109 51.8435 136.95 51.8967 136.79 51.9499C135.713 52.3098 134.63 52.6696 133.543 53.0295L129.799 54.2687C129.799 54.0892 129.806 53.9112 129.821 53.7347C129.873 53.1219 130.014 52.5269 130.244 51.9496C130.54 51.1943 130.998 50.5748 131.615 50.0909C132.233 49.607 133.012 49.3651 133.951 49.3651C134.754 49.3651 135.427 49.607 135.971 50.0909C136.395 50.4603 136.748 50.8778 137.028 51.3434Z" fill="url(#paint14_linear_111_36)"/>
<path d="M108.71 46.4086C109.167 46.4086 109.42 46.6211 109.469 47.0459C109.506 47.2819 109.537 47.518 109.562 47.754C109.587 47.99 109.612 48.2261 109.636 48.4621C109.636 48.4857 109.649 48.5565 109.673 48.6745C109.698 48.7808 109.741 48.8339 109.803 48.8339C109.865 48.8339 109.92 48.7985 109.97 48.7277C110.032 48.6568 110.075 48.6037 110.1 48.5683C110.841 47.6596 111.743 47.0046 112.806 46.6034C113.868 46.2021 114.986 46.0015 116.16 46.0015C117.124 46.0015 118.007 46.1962 118.81 46.5856C119.626 46.9633 120.281 47.5062 120.775 48.2143C121.269 48.9106 121.516 49.7426 121.516 50.7103C121.516 52.5396 121.535 54.3748 121.572 56.2158C121.621 58.0569 121.646 59.8921 121.646 61.7213C121.646 62.217 121.393 62.4648 120.886 62.4648H117.976C117.507 62.4648 117.254 62.2229 117.217 61.739C117.179 61.2315 117.167 60.7241 117.179 60.2166C117.192 59.6973 117.192 59.184 117.179 58.6765C117.167 57.5907 117.161 56.5109 117.161 55.4369C117.161 54.363 117.161 53.289 117.161 52.2151C117.161 51.3771 116.908 50.7516 116.401 50.3386C115.894 49.9137 115.221 49.7013 114.381 49.7013C113.331 49.7013 112.466 50.0081 111.786 50.6218C111.119 51.2355 110.619 51.9908 110.285 52.8878C109.964 53.7847 109.803 54.6639 109.803 55.5254C109.803 56.564 109.797 57.6025 109.784 58.6411C109.772 59.6678 109.76 60.7005 109.747 61.739C109.747 62.2229 109.494 62.4648 108.988 62.4648H106.078C105.571 62.4648 105.318 62.217 105.318 61.7213C105.318 61.0604 105.324 60.4054 105.336 59.7563C105.361 59.0954 105.38 58.4404 105.392 57.7914C105.429 55.0298 105.448 52.2682 105.448 49.5066V47.1344C105.448 46.6506 105.701 46.4086 106.207 46.4086H108.71Z" fill="url(#paint15_linear_111_36)"/>
<path fill-rule="evenodd" clip-rule="evenodd" d="M110.149 48.5083C110.881 47.6307 111.766 46.9957 112.806 46.6034C113.868 46.2021 114.986 46.0015 116.16 46.0015C117.124 46.0015 118.007 46.1962 118.81 46.5856C119.626 46.9633 120.281 47.5062 120.775 48.2143C121.269 48.9106 121.516 49.7426 121.516 50.7103C121.516 52.5396 121.535 54.3748 121.572 56.2158C121.621 58.0569 121.646 59.8921 121.646 61.7213C121.646 62.217 121.393 62.4648 120.886 62.4648H117.976C117.507 62.4648 117.254 62.2229 117.217 61.739C117.179 61.2315 117.167 60.7241 117.179 60.2166C117.192 59.6973 117.192 59.184 117.179 58.6765C117.167 57.5907 117.161 56.5109 117.161 55.4369V52.2151C117.161 51.3771 116.908 50.7516 116.401 50.3386C115.894 49.9137 115.221 49.7013 114.381 49.7013C113.331 49.7013 112.466 50.0081 111.786 50.6218C111.119 51.2355 110.619 51.9908 110.285 52.8878C109.964 53.7847 109.803 54.6639 109.803 55.5254C109.803 56.564 109.797 57.6025 109.784 58.6411L109.747 61.739C109.747 62.2229 109.494 62.4648 108.988 62.4648H106.078C105.571 62.4648 105.318 62.217 105.318 61.7213C105.318 61.0604 105.324 60.4054 105.336 59.7563C105.361 59.0954 105.38 58.4404 105.392 57.7914C105.429 55.0298 105.448 52.2682 105.448 49.5066V47.1344C105.448 46.6506 105.701 46.4086 106.207 46.4086H108.71C109.167 46.4086 109.42 46.6211 109.469 47.0459C109.506 47.2819 109.537 47.518 109.562 47.754L109.636 48.4621C109.636 48.4693 109.637 48.4808 109.64 48.4967C109.645 48.5331 109.656 48.5924 109.673 48.6745C109.698 48.7808 109.741 48.8339 109.803 48.8339C109.865 48.8339 109.92 48.7985 109.97 48.7277C110.021 48.669 110.059 48.6225 110.085 48.5881C110.088 48.5841 110.091 48.5802 110.094 48.5765C110.096 48.5737 110.098 48.571 110.1 48.5683C110.113 48.5519 110.126 48.5355 110.14 48.5192C110.143 48.5156 110.146 48.5119 110.149 48.5083ZM110.073 47.8412L110.059 47.7019C110.034 47.4603 110.002 47.2188 109.964 46.9774C109.928 46.6803 109.811 46.3924 109.563 46.1847C109.317 45.9786 109.011 45.9086 108.71 45.9086H106.207C105.883 45.9086 105.547 45.9857 105.293 46.2283C105.034 46.4751 104.948 46.8093 104.948 47.1344V49.5066C104.948 52.2655 104.93 55.0243 104.893 57.7832C104.88 58.4287 104.862 59.0802 104.837 59.7376L104.837 59.7468C104.825 60.3991 104.818 61.0573 104.818 61.7213C104.818 62.0492 104.903 62.3862 105.159 62.6365C105.412 62.8848 105.75 62.9648 106.078 62.9648H108.988C109.312 62.9648 109.648 62.8877 109.902 62.6451C110.16 62.3992 110.246 62.0664 110.247 61.7423L110.284 58.6471C110.296 57.6066 110.302 56.566 110.302 55.5254C110.302 54.7281 110.451 53.9069 110.754 53.0594C111.061 52.2343 111.518 51.548 112.122 50.9916C112.696 50.4739 113.436 50.2013 114.381 50.2013C115.136 50.2013 115.686 50.391 116.08 50.7219L116.086 50.7263C116.444 51.0188 116.662 51.4817 116.662 52.2151V55.4369C116.662 56.5128 116.668 57.5945 116.68 58.6822L116.68 58.6887C116.692 59.1878 116.692 59.6931 116.68 60.2044M110.073 47.8412C110.797 47.0759 111.65 46.5054 112.629 46.1355C113.75 45.7123 114.928 45.5015 116.16 45.5015C117.192 45.5015 118.149 45.7101 119.024 46.1337C119.914 46.5466 120.637 47.1446 121.183 47.9263C121.745 48.7178 122.016 49.6539 122.016 50.7103C122.016 52.5357 122.034 54.367 122.071 56.2043C122.121 58.0492 122.146 59.8882 122.146 61.7213C122.146 62.0492 122.061 62.3862 121.805 62.6365C121.552 62.8848 121.214 62.9648 120.886 62.9648H117.976C117.658 62.9648 117.337 62.8816 117.09 62.6451C116.844 62.411 116.743 62.0948 116.719 61.7773L116.718 61.7755C116.68 61.252 116.667 60.7281 116.68 60.2044" fill="url(#paint16_linear_111_36)"/>
<path d="M95.8861 40.3721C95.8861 39.723 96.1394 39.1684 96.646 38.7081C97.1526 38.236 97.7456 38 98.4252 38C99.1171 38 99.7226 38.2419 100.242 38.7258C100.773 39.1979 101.038 39.7703 101.038 40.4429C101.038 41.092 100.785 41.6585 100.279 42.1424C99.7844 42.6145 99.1913 42.8505 98.4994 42.8505C97.7951 42.8505 97.1835 42.6086 96.6645 42.1247C96.1456 41.629 95.8861 41.0448 95.8861 40.3721ZM96.1641 51.0468V47.1345C96.1641 46.6506 96.4174 46.4087 96.924 46.4087H99.7782C100.285 46.4087 100.538 46.6506 100.538 47.1345C100.538 49.5657 100.544 52.0027 100.557 54.4457C100.569 56.8768 100.575 59.3079 100.575 61.7391C100.575 62.223 100.322 62.4649 99.8153 62.4649H96.8869C96.3803 62.4649 96.127 62.223 96.127 61.7391C96.127 59.957 96.1332 58.175 96.1456 56.3929C96.1579 54.6109 96.1641 52.8288 96.1641 51.0468Z" fill="url(#paint17_linear_111_36)"/>
<path fill-rule="evenodd" clip-rule="evenodd" d="M96.3197 42.4865C95.7095 41.9035 95.3866 41.1915 95.3866 40.3721C95.3866 39.5745 95.7051 38.8888 96.308 38.34C96.9047 37.7849 97.6179 37.5 98.4252 37.5C99.2449 37.5 99.9696 37.7908 100.578 38.3558C101.206 38.916 101.538 39.6202 101.538 40.4429C101.538 41.2404 101.22 41.9343 100.623 42.5042C100.035 43.0662 99.3178 43.3505 98.4994 43.3505C97.6678 43.3505 96.9348 43.06 96.3241 42.4906L96.3197 42.4865ZM100.242 38.7258C99.7226 38.2419 99.1171 38 98.4252 38C97.7456 38 97.1526 38.236 96.646 38.7081C96.1394 39.1684 95.8861 39.723 95.8861 40.3721C95.8861 41.0448 96.1456 41.629 96.6645 42.1247C97.1835 42.6086 97.7951 42.8505 98.4994 42.8505C99.1913 42.8505 99.7844 42.6145 100.279 42.1424C100.785 41.6585 101.038 41.092 101.038 40.4429C101.038 39.7703 100.773 39.1979 100.242 38.7258ZM95.6647 51.0468V47.1345C95.6647 46.8094 95.7509 46.4752 96.0093 46.2284C96.2633 45.9858 96.5994 45.9087 96.924 45.9087H99.7782C100.103 45.9087 100.439 45.9858 100.693 46.2284C100.951 46.4752 101.038 46.8094 101.038 47.1345C101.038 49.5648 101.044 52.001 101.056 54.4431C101.068 56.8751 101.075 59.3071 101.075 61.7391C101.075 62.0643 100.988 62.3984 100.73 62.6452C100.476 62.8878 100.14 62.9649 99.8153 62.9649H96.8869C96.5623 62.9649 96.2262 62.8878 95.9722 62.6452C95.7139 62.3984 95.6276 62.0643 95.6276 61.7391C95.6276 59.9559 95.6338 58.1727 95.6461 56.3895C95.6585 54.6086 95.6647 52.8277 95.6647 51.0468ZM96.1641 47.1345V51.0468C96.1641 52.8288 96.1579 54.6109 96.1456 56.3929C96.1332 58.175 96.127 59.957 96.127 61.7391C96.127 62.223 96.3803 62.4649 96.8869 62.4649H99.8153C100.322 62.4649 100.575 62.223 100.575 61.7391C100.575 59.3079 100.569 56.8768 100.557 54.4457C100.544 52.0027 100.538 49.5657 100.538 47.1345C100.538 46.6506 100.285 46.4087 99.7782 46.4087H96.924C96.4174 46.4087 96.1641 46.6506 96.1641 47.1345Z" fill="url(#paint18_linear_111_36)"/>
<path d="M90.643 58.3939C90.8159 58.3939 90.9457 58.447 91.0322 58.5532C91.131 58.6594 91.2113 58.7774 91.2731 58.9072C91.3225 59.0016 91.4214 59.2318 91.5697 59.5976C91.7179 59.9635 91.8538 60.3234 91.9774 60.6775C92.1133 61.0315 92.1813 61.244 92.1813 61.3148C92.1813 61.5744 91.965 61.7986 91.5326 61.9875C91.1125 62.1763 90.6059 62.3297 90.0128 62.4477C89.4197 62.5657 88.8575 62.6484 88.3262 62.6956C87.7949 62.7546 87.4181 62.7841 87.1957 62.7841C84.5886 62.7841 82.556 62.0465 81.098 60.5713C79.6401 59.0961 78.9111 57.1311 78.9111 54.6763C78.9111 53.0359 79.2447 51.5607 79.9119 50.2507C80.5915 48.9407 81.5676 47.9021 82.8402 47.135C84.1129 46.3679 85.6388 45.9844 87.4181 45.9844C88.11 45.9844 88.8575 46.0611 89.6607 46.2145C90.4638 46.3561 91.1681 46.5863 91.7735 46.9049C91.8971 46.9639 91.9959 47.0347 92.0701 47.1173C92.1566 47.1881 92.1998 47.2944 92.1998 47.436C92.1998 47.554 92.1689 47.672 92.1071 47.79L91.2546 49.8435C91.1187 50.174 90.9024 50.3392 90.6059 50.3392C90.4823 50.3392 90.3464 50.3097 90.1982 50.2507C89.7904 50.1209 89.3827 50.0147 88.9749 49.932C88.5672 49.8376 88.1471 49.7904 87.7146 49.7904C86.2196 49.7904 85.1075 50.2389 84.3785 51.1358C83.6619 52.0327 83.3036 53.148 83.3036 54.4816C83.3036 55.768 83.6434 56.8537 84.3229 57.7389C85.0149 58.6122 86.0836 59.0488 87.5293 59.0488C87.9988 59.0488 88.4498 58.9957 88.8823 58.8895C89.3147 58.7833 89.7472 58.6535 90.1796 58.5001C90.2538 58.4765 90.3279 58.4529 90.402 58.4293C90.4762 58.4057 90.5565 58.3939 90.643 58.3939Z" fill="url(#paint19_linear_111_36)"/>
<path fill-rule="evenodd" clip-rule="evenodd" d="M79.4687 50.0202C80.191 48.6278 81.2317 47.521 82.5826 46.7067C83.9472 45.8842 85.5661 45.4844 87.4181 45.4844C88.1455 45.4844 88.9235 45.5649 89.7508 45.7227C90.5905 45.8711 91.3417 46.114 91.9979 46.4581C92.1533 46.5334 92.2976 46.631 92.4178 46.7574C92.6259 46.9454 92.6992 47.1993 92.6992 47.436C92.6992 47.6364 92.6482 47.826 92.5607 48.0003L91.7164 50.0339C91.7163 50.0342 91.7165 50.0337 91.7164 50.0339C91.625 50.2558 91.4904 50.4623 91.2935 50.6127C91.0904 50.768 90.8532 50.8392 90.6059 50.8392C90.4099 50.8392 90.2166 50.7941 90.0313 50.7223C89.6454 50.6 89.2603 50.5 88.8759 50.4221L88.8623 50.4194C88.4927 50.3338 88.1105 50.2904 87.7146 50.2904C86.3231 50.2904 85.3749 50.7032 84.7673 51.4497C84.1334 52.2439 83.803 53.2432 83.803 54.4816C83.803 55.6737 84.1156 56.6468 84.7166 57.4311C85.287 58.149 86.1886 58.5488 87.5293 58.5488C87.9609 58.5488 88.3718 58.5001 88.7633 58.4039C89.1791 58.3018 89.5956 58.1768 90.0128 58.0288L90.0205 58.0261L90.2507 57.9528C90.3789 57.912 90.5108 57.8939 90.643 57.8939C90.9177 57.8939 91.2027 57.9814 91.4075 58.2231C91.5342 58.3613 91.6388 58.5153 91.7201 58.684C91.7838 58.8079 91.8906 59.0596 92.0325 59.4096C92.1826 59.7802 92.3206 60.1454 92.4463 60.5053C92.5144 60.6828 92.5683 60.8321 92.6059 60.9498C92.625 61.0093 92.6417 61.0664 92.6542 61.1183C92.6643 61.1607 92.6807 61.235 92.6807 61.3148C92.6807 61.8997 92.1925 62.2443 91.7348 62.4447C91.2721 62.6524 90.7283 62.8151 90.1102 62.9381C89.5038 63.0588 88.9256 63.1441 88.3759 63.1931C87.8472 63.2518 87.4477 63.2841 87.1957 63.2841C84.4915 63.2841 82.3176 62.5161 80.743 60.9229C79.1758 59.3372 78.4116 57.2369 78.4116 54.6763C78.4116 52.9662 78.7599 51.4117 79.467 50.0236L79.4687 50.0202ZM88.3262 62.6956C88.8575 62.6484 89.4197 62.5657 90.0128 62.4477C90.6059 62.3297 91.1125 62.1763 91.5326 61.9875C91.965 61.7986 92.1813 61.5744 92.1813 61.3148C92.1813 61.244 92.1133 61.0315 91.9774 60.6775C91.8538 60.3234 91.7179 59.9635 91.5697 59.5976C91.4214 59.2318 91.3225 59.0016 91.2731 58.9072C91.2113 58.7774 91.131 58.6594 91.0322 58.5532C90.9457 58.447 90.8159 58.3939 90.643 58.3939C90.5565 58.3939 90.4762 58.4057 90.402 58.4293L90.1796 58.5001C89.7472 58.6535 89.3147 58.7833 88.8823 58.8895C88.4498 58.9957 87.9988 59.0488 87.5293 59.0488C86.0836 59.0488 85.0149 58.6122 84.3229 57.7389C83.6434 56.8537 83.3036 55.768 83.3036 54.4816C83.3036 53.148 83.6619 52.0327 84.3785 51.1358C85.1075 50.2389 86.2196 49.7904 87.7146 49.7904C88.1471 49.7904 88.5672 49.8376 88.9749 49.932C89.3827 50.0147 89.7904 50.1209 90.1982 50.2507C90.3464 50.3097 90.4823 50.3392 90.6059 50.3392C90.9024 50.3392 91.1187 50.174 91.2546 49.8435L92.1071 47.79C92.1689 47.672 92.1998 47.554 92.1998 47.436C92.1998 47.2944 92.1566 47.1881 92.0701 47.1173C91.9959 47.0347 91.8971 46.9639 91.7735 46.9049C91.1681 46.5863 90.4638 46.3561 89.6607 46.2145C88.8575 46.0611 88.11 45.9844 87.4181 45.9844C85.6388 45.9844 84.1129 46.3679 82.8402 47.135C81.5676 47.9021 80.5915 48.9407 79.9119 50.2507C79.2447 51.5607 78.9111 53.0359 78.9111 54.6763C78.9111 57.1311 79.6401 59.0961 81.098 60.5713C82.556 62.0465 84.5886 62.7841 87.1957 62.7841C87.4181 62.7841 87.7949 62.7546 88.3262 62.6956Z" fill="url(#paint20_linear_111_36)"/>
<path d="M184.621 62.3174C183.015 62.3174 181.668 61.9516 180.581 61.2199C179.493 60.4881 178.672 59.5204 178.116 58.3166C177.572 57.1011 177.3 55.7852 177.3 54.369V54.0857C177.325 52.5987 177.646 51.2002 178.264 49.8902C178.894 48.5802 179.802 47.524 180.989 46.7215C182.175 45.9072 183.608 45.5 185.288 45.5C186.326 45.5 187.29 45.6888 188.18 46.0665C189.082 46.4323 189.922 46.9339 190.7 47.5712C190.787 47.6538 190.861 47.6951 190.923 47.6951C191.071 47.6951 191.139 47.5476 191.127 47.2526C191.127 46.9575 191.17 46.6625 191.256 46.3674C191.355 46.0724 191.602 45.9249 191.998 45.9249H194.611C195.117 45.9249 195.371 46.1668 195.371 46.6507C195.371 47.1581 195.365 47.6656 195.352 48.1731C195.352 48.6806 195.352 49.188 195.352 49.6955C195.352 50.9937 195.358 52.2978 195.371 53.6078C195.395 54.9177 195.414 56.2218 195.426 57.52C195.439 58.1337 195.451 58.7533 195.463 59.3788C195.488 59.9925 195.5 60.6121 195.5 61.2376C195.5 61.7332 195.247 61.9811 194.741 61.9811H191.831C191.497 61.9811 191.281 61.8807 191.182 61.6801C191.083 61.4677 191.04 61.2199 191.052 60.9366C191.065 60.6534 191.065 60.3996 191.052 60.1754C191.052 60.14 191.046 60.081 191.034 59.9984C191.021 59.9158 190.984 59.8745 190.923 59.8745C190.873 59.8745 190.824 59.8922 190.774 59.9276C190.737 59.963 190.7 59.9925 190.663 60.0161C189.798 60.7124 188.865 61.273 187.865 61.6978C186.864 62.1109 185.783 62.3174 184.621 62.3174ZM186.512 58.5468C187.389 58.5468 188.198 58.3756 188.94 58.0334C189.693 57.6793 190.28 57.1247 190.7 56.3694C190.725 56.3221 190.781 56.2041 190.867 56.0153C190.966 55.8147 191.015 55.6908 191.015 55.6436C191.015 55.2305 191.009 54.8174 190.997 54.4044C190.997 53.9913 190.997 53.5842 190.997 53.1829C190.997 52.9941 191.003 52.7875 191.015 52.5633C191.028 52.3273 191.021 52.1207 190.997 51.9437C190.984 51.8611 190.935 51.7372 190.848 51.572C190.774 51.4067 190.719 51.2887 190.682 51.2179C190.249 50.4744 189.638 49.9197 188.847 49.5539C188.056 49.188 187.228 49.0051 186.363 49.0051C185.449 49.0051 184.646 49.2234 183.954 49.6601C183.262 50.0968 182.718 50.675 182.323 51.3949C181.94 52.103 181.748 52.882 181.748 53.7317C181.748 54.5814 181.952 55.3721 182.36 56.1038C182.768 56.8355 183.33 57.4256 184.047 57.8741C184.776 58.3225 185.597 58.5468 186.512 58.5468Z" fill="url(#paint21_linear_111_36)"/>
<path fill-rule="evenodd" clip-rule="evenodd" d="M185.288 46C183.691 46 182.361 46.3857 181.271 47.1338L181.268 47.1358C180.157 47.8876 179.307 48.8747 178.715 50.1054C178.129 51.3478 177.824 52.6742 177.8 54.0899V54.369C177.8 55.7182 178.058 56.963 178.57 58.1095C179.088 59.2299 179.85 60.1254 180.859 60.8049C181.847 61.4697 183.091 61.8174 184.621 61.8174C185.721 61.8174 186.736 61.6222 187.672 61.2365C188.629 60.8301 189.521 60.2939 190.35 59.6264L190.372 59.6091L190.395 59.5942C190.401 59.5907 190.412 59.5823 190.43 59.5658L190.455 59.5415L190.484 59.5209C190.598 59.439 190.747 59.3745 190.923 59.3745C191.077 59.3745 191.244 59.4324 191.368 59.5713C191.477 59.6929 191.514 59.8319 191.528 59.9243C191.539 60.0015 191.55 60.0859 191.552 60.1585C191.564 60.4 191.564 60.6671 191.551 60.9584C191.542 61.1681 191.573 61.3279 191.627 61.4515L191.628 61.4522C191.65 61.4621 191.709 61.4811 191.831 61.4811H194.741C194.828 61.4811 194.885 61.4702 194.918 61.4592C194.95 61.4489 194.96 61.4393 194.961 61.4376C194.963 61.4361 194.971 61.4283 194.98 61.4014C194.99 61.372 195.001 61.3203 195.001 61.2376C195.001 60.6187 194.989 60.0058 194.964 59.3989L194.964 59.3887C194.952 58.7632 194.939 58.1437 194.927 57.5301L194.927 57.5248C194.915 56.2282 194.896 54.9256 194.871 53.6172L194.871 53.6125C194.859 52.3009 194.853 50.9953 194.853 49.6955V48.1609C194.865 47.6575 194.871 47.1541 194.871 46.6507C194.871 46.572 194.861 46.5241 194.852 46.498C194.844 46.4754 194.836 46.4682 194.836 46.4682C194.836 46.4682 194.824 46.4571 194.792 46.4467C194.757 46.4356 194.699 46.4249 194.611 46.4249H191.998C191.858 46.4249 191.794 46.4515 191.771 46.4649C191.76 46.472 191.746 46.4813 191.732 46.5193C191.662 46.7636 191.627 47.0044 191.626 47.2432C191.632 47.4128 191.621 47.6149 191.538 47.7939C191.492 47.8934 191.418 48.0002 191.3 48.0806C191.179 48.163 191.046 48.1951 190.923 48.1951C190.669 48.1951 190.478 48.0468 190.371 47.9474C189.634 47.346 188.841 46.8742 187.992 46.5299L187.985 46.5269C187.161 46.1773 186.264 46 185.288 46ZM180.707 46.3081C181.99 45.4283 183.525 45 185.288 45C186.387 45 187.416 45.1999 188.371 45.6046C189.177 45.932 189.936 46.3621 190.645 46.8935C190.668 46.67 190.712 46.4475 190.777 46.2266L190.78 46.2175L190.783 46.2084C190.867 45.9574 191.025 45.7461 191.26 45.6061C191.485 45.472 191.742 45.4249 191.998 45.4249H194.611C194.935 45.4249 195.272 45.502 195.526 45.7445C195.784 45.9913 195.87 46.3255 195.87 46.6507C195.87 47.1602 195.864 47.6697 195.852 48.1792V49.6955C195.852 50.9913 195.858 52.2931 195.87 53.6007C195.895 54.9105 195.913 56.2145 195.926 57.5125C195.938 58.1238 195.95 58.7409 195.963 59.3638C195.988 59.9827 196 60.6072 196 61.2376C196 61.5654 195.915 61.9025 195.66 62.1528C195.406 62.401 195.068 62.4811 194.741 62.4811H191.831C191.412 62.4811 190.955 62.3501 190.734 61.9013L190.729 61.8913C190.59 61.5923 190.538 61.2616 190.553 60.9148C190.556 60.8503 190.558 60.7877 190.56 60.7271C189.778 61.3051 188.945 61.7824 188.06 62.1581L188.055 62.1601C186.989 62.5999 185.843 62.8174 184.621 62.8174C182.938 62.8174 181.489 62.4334 180.302 61.6348C179.138 60.8514 178.256 59.8124 177.662 58.5265L177.66 58.521C177.086 57.2371 176.801 55.8511 176.801 54.369V54.0774C176.827 52.5213 177.164 51.0527 177.812 49.6768L177.814 49.6733C178.482 48.2853 179.448 47.1608 180.707 46.3081ZM183.688 49.2371C184.468 48.7444 185.366 48.5051 186.363 48.5051C187.301 48.5051 188.2 48.704 189.056 49.1C189.939 49.5083 190.629 50.1329 191.113 50.9663L191.119 50.976L191.124 50.9858C191.168 51.0688 191.226 51.1941 191.298 51.3536C191.384 51.5189 191.466 51.7018 191.491 51.8697L191.491 51.8745C191.522 52.0913 191.528 52.3311 191.514 52.5895L191.514 52.5909C191.502 52.8076 191.496 53.0048 191.496 53.1829V54.3969C191.509 54.8125 191.515 55.228 191.515 55.6436C191.515 55.7271 191.496 55.7981 191.486 55.8322C191.473 55.875 191.458 55.9178 191.442 55.9573C191.411 56.0351 191.369 56.1273 191.318 56.2301C191.235 56.4113 191.174 56.5407 191.143 56.6014L191.137 56.6127C190.668 57.456 190.004 58.0857 189.152 58.486L189.149 58.4875C188.337 58.8622 187.456 59.0468 186.512 59.0468C185.512 59.0468 184.598 58.8003 183.785 58.3001L183.782 58.2981C182.995 57.8054 182.373 57.1535 181.924 56.3474C181.474 55.5401 181.249 54.6654 181.249 53.7317C181.249 52.8036 181.459 51.9421 181.884 51.1568L181.885 51.154C182.321 50.3601 182.924 49.7191 183.688 49.2371ZM186.363 49.5051C185.532 49.5051 184.823 49.7025 184.22 50.0831C183.601 50.4741 183.116 50.9892 182.761 51.6344C182.421 52.265 182.248 52.9609 182.248 53.7317C182.248 54.4974 182.431 55.2041 182.796 55.8602C183.162 56.517 183.664 57.0449 184.31 57.449C184.954 57.8451 185.684 58.0468 186.512 58.0468C187.321 58.0468 188.058 57.8893 188.729 57.58C189.381 57.2732 189.89 56.796 190.26 56.1324C190.28 56.0948 190.329 55.9913 190.413 55.8069L190.419 55.794C190.466 55.6988 190.497 55.631 190.514 55.5865L190.516 55.5829C190.515 55.1951 190.509 54.8072 190.498 54.4193L190.497 54.4119V53.1829C190.497 52.9836 190.504 52.7681 190.517 52.5367C190.527 52.3277 190.522 52.1574 190.503 52.0217C190.503 52.0217 190.503 52.0209 190.503 52.0178L190.997 51.9437L190.502 52.0129C190.503 52.0158 190.503 52.0187 190.503 52.0217C190.502 52.0181 190.498 52.0031 190.487 51.9742C190.47 51.9331 190.444 51.877 190.406 51.8041L190.399 51.7907L190.393 51.7768C190.323 51.6211 190.274 51.5178 190.244 51.4595C190.246 51.4628 190.248 51.4662 190.25 51.4695L190.682 51.2179L190.239 51.45C190.241 51.453 190.243 51.4562 190.244 51.4595C189.864 50.811 189.333 50.3296 188.637 50.0078C187.912 49.6721 187.155 49.5051 186.363 49.5051Z" fill="url(#paint22_linear_111_36)"/>
</g>
<defs>
<linearGradient id="paint0_linear_111_36" x1="0" y1="0" x2="83.4965" y2="80.4061" gradientUnits="userSpaceOnUse">
<stop offset="0.188278" stop-color="#5156BE"/>
<stop offset="1" stop-color="#34C38F"/>
</linearGradient>
<linearGradient id="paint1_linear_111_36" x1="83.406" y1="12.5" x2="120.851" y2="75.3763" gradientUnits="userSpaceOnUse">
<stop stop-color="#5156BE"/>
<stop offset="1" stop-color="#34C38F"/>
</linearGradient>
<linearGradient id="paint2_linear_111_36" x1="83.406" y1="12.5" x2="120.851" y2="75.3763" gradientUnits="userSpaceOnUse">
<stop stop-color="#5156BE"/>
<stop offset="1" stop-color="#34C38F"/>
</linearGradient>
<linearGradient id="paint3_linear_111_36" x1="83.406" y1="12.5" x2="120.851" y2="75.3763" gradientUnits="userSpaceOnUse">
<stop stop-color="#5156BE"/>
<stop offset="1" stop-color="#34C38F"/>
</linearGradient>
<linearGradient id="paint4_linear_111_36" x1="83.406" y1="12.5" x2="120.851" y2="75.3763" gradientUnits="userSpaceOnUse">
<stop stop-color="#5156BE"/>
<stop offset="1" stop-color="#34C38F"/>
</linearGradient>
<linearGradient id="paint5_linear_111_36" x1="83.406" y1="12.5" x2="120.851" y2="75.3763" gradientUnits="userSpaceOnUse">
<stop stop-color="#5156BE"/>
<stop offset="1" stop-color="#34C38F"/>
</linearGradient>
<linearGradient id="paint6_linear_111_36" x1="83.406" y1="12.5" x2="120.851" y2="75.3763" gradientUnits="userSpaceOnUse">
<stop stop-color="#5156BE"/>
<stop offset="1" stop-color="#34C38F"/>
</linearGradient>
<linearGradient id="paint7_linear_111_36" x1="83.406" y1="12.5" x2="120.851" y2="75.3763" gradientUnits="userSpaceOnUse">
<stop stop-color="#5156BE"/>
<stop offset="1" stop-color="#34C38F"/>
</linearGradient>
<linearGradient id="paint8_linear_111_36" x1="83.406" y1="12.5" x2="120.851" y2="75.3763" gradientUnits="userSpaceOnUse">
<stop stop-color="#5156BE"/>
<stop offset="1" stop-color="#34C38F"/>
</linearGradient>
<linearGradient id="paint9_linear_111_36" x1="83.406" y1="12.5" x2="120.851" y2="75.3763" gradientUnits="userSpaceOnUse">
<stop stop-color="#5156BE"/>
<stop offset="1" stop-color="#34C38F"/>
</linearGradient>
<linearGradient id="paint10_linear_111_36" x1="83.406" y1="12.5" x2="120.851" y2="75.3763" gradientUnits="userSpaceOnUse">
<stop stop-color="#5156BE"/>
<stop offset="1" stop-color="#34C38F"/>
</linearGradient>
<linearGradient id="paint11_linear_111_36" x1="86.9021" y1="43.5" x2="108.413" y2="105.165" gradientUnits="userSpaceOnUse">
<stop stop-color="#5156BE"/>
<stop offset="1" stop-color="#34C38F"/>
</linearGradient>
<linearGradient id="paint12_linear_111_36" x1="86.9021" y1="43.5" x2="108.413" y2="105.165" gradientUnits="userSpaceOnUse">
<stop stop-color="#5156BE"/>
<stop offset="1" stop-color="#34C38F"/>
</linearGradient>
<linearGradient id="paint13_linear_111_36" x1="86.9021" y1="43.5" x2="108.413" y2="105.165" gradientUnits="userSpaceOnUse">
<stop stop-color="#5156BE"/>
<stop offset="1" stop-color="#34C38F"/>
</linearGradient>
<linearGradient id="paint14_linear_111_36" x1="86.9021" y1="43.5" x2="108.413" y2="105.165" gradientUnits="userSpaceOnUse">
<stop stop-color="#5156BE"/>
<stop offset="1" stop-color="#34C38F"/>
</linearGradient>
<linearGradient id="paint15_linear_111_36" x1="86.9021" y1="43.5" x2="108.413" y2="105.165" gradientUnits="userSpaceOnUse">
<stop stop-color="#5156BE"/>
<stop offset="1" stop-color="#34C38F"/>
</linearGradient>
<linearGradient id="paint16_linear_111_36" x1="86.9021" y1="43.5" x2="108.413" y2="105.165" gradientUnits="userSpaceOnUse">
<stop stop-color="#5156BE"/>
<stop offset="1" stop-color="#34C38F"/>
</linearGradient>
<linearGradient id="paint17_linear_111_36" x1="86.9021" y1="43.5" x2="108.413" y2="105.165" gradientUnits="userSpaceOnUse">
<stop stop-color="#5156BE"/>
<stop offset="1" stop-color="#34C38F"/>
</linearGradient>
<linearGradient id="paint18_linear_111_36" x1="86.9021" y1="43.5" x2="108.413" y2="105.165" gradientUnits="userSpaceOnUse">
<stop stop-color="#5156BE"/>
<stop offset="1" stop-color="#34C38F"/>
</linearGradient>
<linearGradient id="paint19_linear_111_36" x1="86.9021" y1="43.5" x2="108.413" y2="105.165" gradientUnits="userSpaceOnUse">
<stop stop-color="#5156BE"/>
<stop offset="1" stop-color="#34C38F"/>
</linearGradient>
<linearGradient id="paint20_linear_111_36" x1="86.9021" y1="43.5" x2="108.413" y2="105.165" gradientUnits="userSpaceOnUse">
<stop stop-color="#5156BE"/>
<stop offset="1" stop-color="#34C38F"/>
</linearGradient>
<linearGradient id="paint21_linear_111_36" x1="86.9021" y1="43.5" x2="108.413" y2="105.165" gradientUnits="userSpaceOnUse">
<stop stop-color="#5156BE"/>
<stop offset="1" stop-color="#34C38F"/>
</linearGradient>
<linearGradient id="paint22_linear_111_36" x1="86.9021" y1="43.5" x2="108.413" y2="105.165" gradientUnits="userSpaceOnUse">
<stop stop-color="#5156BE"/>
<stop offset="1" stop-color="#34C38F"/>
</linearGradient>
<clipPath id="clip0_111_36">
<rect width="196" height="70" fill="white"/>
</clipPath>
</defs>
</svg>
